<?xml version="1.0" encoding="utf-8"?>
<!-- Generator: Adobe Illustrator 24.0.1, SVG Export Plug-In . SVG Version: 6.00 Build 0)  -->
<svg version="1.1" id="Capa_1" xmlns="http://www.w3.org/2000/svg" xmlns:xlink="http://www.w3.org/1999/xlink" x="0px" y="0px"
	 width="207.514px" height="70.258px" viewBox="0 0 207.514 70.258" style="enable-background:new 0 0 207.514 70.258;"
	 xml:space="preserve">
<style type="text/css">
	.st0{fill:#EC5242;}
	.st1{fill:url(#SVGID_1_);}
	.st2{fill:url(#SVGID_2_);}
	.st3{fill:url(#SVGID_3_);}
	.st4{fill:url(#SVGID_4_);}
	.st5{fill:url(#SVGID_5_);}
	.st6{fill:url(#SVGID_6_);}
	.st7{fill:url(#SVGID_7_);}
	.st8{fill:url(#SVGID_8_);}
	.st9{fill:url(#SVGID_9_);}
	.st10{fill:url(#SVGID_10_);}
	.st11{fill:url(#SVGID_11_);}
	.st12{fill:url(#SVGID_12_);}
	.st13{fill:url(#SVGID_13_);}
	.st14{fill:url(#SVGID_14_);}
	.st15{fill:url(#SVGID_15_);}
	.st16{fill:url(#SVGID_16_);}
	.st17{fill:url(#SVGID_17_);}
	.st18{fill:url(#SVGID_18_);}
	.st19{fill:url(#SVGID_19_);}
	.st20{fill:url(#SVGID_20_);}
	.st21{fill:url(#SVGID_21_);}
	.st22{fill:url(#SVGID_22_);}
	.st23{fill:url(#SVGID_23_);}
	.st24{fill:url(#SVGID_24_);}
</style>
<g>
	<g>
		<path class="st0" d="M12.084,7.83c-0.104,0-0.2-0.026-0.288-0.078c-0.088-0.052-0.188-0.122-0.3-0.21L11.472,7.53
			c-0.152-0.152-0.348-0.32-0.588-0.504c-0.24-0.184-0.508-0.356-0.804-0.516C9.784,6.35,9.466,6.214,9.126,6.102
			C8.786,5.99,8.44,5.934,8.088,5.934c-0.448,0-0.844,0.05-1.188,0.15S6.268,6.32,6.036,6.492C5.804,6.664,5.628,6.866,5.508,7.098
			c-0.12,0.232-0.18,0.48-0.18,0.744c0,0.288,0.09,0.54,0.27,0.756c0.18,0.216,0.424,0.408,0.732,0.576
			c0.308,0.168,0.662,0.322,1.062,0.462c0.4,0.14,0.82,0.278,1.26,0.414c0.504,0.152,1.004,0.316,1.5,0.492s0.97,0.374,1.422,0.594
			c0.452,0.22,0.874,0.464,1.266,0.732s0.73,0.576,1.014,0.924c0.284,0.348,0.508,0.736,0.672,1.164
			c0.164,0.428,0.246,0.91,0.246,1.446c0,0.872-0.176,1.66-0.528,2.364c-0.352,0.704-0.838,1.306-1.458,1.806
			c-0.62,0.5-1.348,0.884-2.184,1.152c-0.836,0.268-1.734,0.402-2.694,0.402c-0.616,0-1.229-0.072-1.836-0.216
			c-0.608-0.144-1.192-0.348-1.752-0.612c-0.56-0.264-1.09-0.582-1.59-0.954c-0.5-0.372-0.946-0.79-1.338-1.254v0.012l-0.024-0.048
			c-0.176-0.2-0.264-0.384-0.264-0.552c0-0.088,0.024-0.172,0.072-0.252c0.048-0.08,0.12-0.168,0.216-0.264l0.396-0.396
			c0.12-0.104,0.248-0.22,0.384-0.348s0.272-0.244,0.408-0.348c0.136-0.104,0.262-0.192,0.378-0.264
			c0.116-0.072,0.21-0.108,0.282-0.108c0.112,0,0.216,0.036,0.312,0.108c0.096,0.072,0.176,0.14,0.24,0.204l0.048,0.048H3.828
			c0.28,0.264,0.594,0.516,0.942,0.756c0.348,0.24,0.706,0.454,1.074,0.642c0.368,0.188,0.733,0.336,1.098,0.444
			c0.364,0.108,0.706,0.162,1.026,0.162c0.44,0,0.852-0.056,1.236-0.168c0.384-0.112,0.716-0.27,0.996-0.474
			c0.28-0.204,0.5-0.45,0.66-0.738s0.24-0.608,0.24-0.96s-0.104-0.654-0.312-0.906s-0.48-0.472-0.816-0.66s-0.714-0.35-1.134-0.486
			c-0.42-0.136-0.842-0.264-1.266-0.384c-0.976-0.296-1.83-0.616-2.562-0.96c-0.732-0.344-1.342-0.73-1.83-1.158
			c-0.488-0.428-0.854-0.908-1.098-1.44C1.838,9.02,1.716,8.422,1.716,7.758c0-0.744,0.15-1.422,0.45-2.034
			c0.3-0.612,0.726-1.136,1.278-1.572c0.552-0.436,1.216-0.776,1.992-1.02C6.212,2.888,7.08,2.766,8.04,2.766
			c0.728,0,1.468,0.114,2.22,0.342s1.448,0.542,2.088,0.942c0.192,0.12,0.388,0.256,0.588,0.408c0.2,0.152,0.384,0.306,0.552,0.462
			c0.168,0.156,0.306,0.308,0.414,0.456s0.162,0.274,0.162,0.378c0,0.096-0.024,0.194-0.072,0.294c-0.048,0.1-0.108,0.19-0.18,0.27
			l-0.36,0.384V6.69c-0.12,0.128-0.244,0.26-0.372,0.396c-0.128,0.136-0.256,0.258-0.384,0.366c-0.128,0.108-0.244,0.198-0.348,0.27
			C12.244,7.794,12.156,7.83,12.084,7.83z"/>
		<path class="st0" d="M19.932,13.662c0,0.672,0.096,1.276,0.288,1.812s0.462,0.99,0.81,1.362s0.764,0.656,1.248,0.852
			c0.484,0.196,1.022,0.294,1.614,0.294c0.624,0,1.184-0.104,1.68-0.312s0.914-0.502,1.254-0.882c0.34-0.38,0.6-0.836,0.78-1.368
			c0.18-0.532,0.27-1.118,0.27-1.758V3.606c0-0.144,0.052-0.268,0.155-0.372s0.235-0.156,0.395-0.156h2.32
			c0.167,0,0.309,0.052,0.424,0.156s0.173,0.228,0.173,0.372v10.188c0,1.24-0.2,2.322-0.6,3.246c-0.4,0.924-0.939,1.694-1.619,2.31
			s-1.471,1.076-2.374,1.38c-0.903,0.304-1.858,0.456-2.866,0.456s-1.962-0.162-2.866-0.486c-0.903-0.324-1.694-0.798-2.374-1.422
			s-1.219-1.396-1.619-2.316s-0.6-1.976-0.6-3.168V3.606c0-0.128,0.046-0.248,0.138-0.36c0.092-0.112,0.21-0.168,0.354-0.168h2.448
			c0.12,0,0.244,0.052,0.372,0.156s0.192,0.228,0.192,0.372V13.662z"/>
		<path class="st0" d="M34.728,3.606c0.016-0.152,0.076-0.278,0.18-0.378s0.236-0.15,0.396-0.15h3c0.28,0,0.464,0.152,0.552,0.456
			l4.236,11.808c0.712-1.984,1.426-3.952,2.142-5.904c0.716-1.952,1.426-3.92,2.13-5.904c0.112-0.304,0.296-0.456,0.552-0.456h3.012
			c0.16,0,0.29,0.052,0.39,0.156s0.154,0.228,0.162,0.372c0.296,2.808,0.596,5.604,0.9,8.388c0.304,2.784,0.608,5.576,0.912,8.376
			v0.036c0,0.328-0.176,0.492-0.528,0.492h-2.328c-0.36,0-0.548-0.176-0.564-0.528L48.647,9.018l-3.996,11.04
			c-0.04,0.112-0.104,0.216-0.192,0.312c-0.088,0.096-0.18,0.144-0.276,0.144h-2.16c-0.104,0-0.2-0.046-0.288-0.138
			s-0.152-0.198-0.192-0.318c-0.656-1.848-1.316-3.684-1.98-5.508c-0.664-1.824-1.332-3.664-2.004-5.52l-1.224,11.34
			c0,0.352-0.184,0.528-0.552,0.528h-2.328c-0.353,0-0.528-0.176-0.528-0.528L34.728,3.606z"/>
		<path class="st0" d="M56.171,3.606c0.016-0.152,0.076-0.278,0.18-0.378s0.236-0.15,0.396-0.15h3c0.28,0,0.464,0.152,0.552,0.456
			l4.236,11.808c0.712-1.984,1.426-3.952,2.142-5.904c0.716-1.952,1.426-3.92,2.13-5.904c0.112-0.304,0.296-0.456,0.552-0.456h3.012
			c0.16,0,0.29,0.052,0.39,0.156s0.154,0.228,0.162,0.372c0.296,2.808,0.596,5.604,0.9,8.388c0.304,2.784,0.608,5.576,0.912,8.376
			v0.036c0,0.328-0.176,0.492-0.528,0.492h-2.328c-0.36,0-0.548-0.176-0.564-0.528L70.091,9.018l-3.996,11.04
			c-0.04,0.112-0.104,0.216-0.192,0.312c-0.088,0.096-0.18,0.144-0.276,0.144h-2.16c-0.104,0-0.2-0.046-0.288-0.138
			s-0.152-0.198-0.192-0.318c-0.656-1.848-1.316-3.684-1.98-5.508c-0.664-1.824-1.332-3.664-2.004-5.52l-1.224,11.34
			c0,0.352-0.184,0.528-0.552,0.528h-2.328c-0.353,0-0.528-0.176-0.528-0.528L56.171,3.606z"/>
		<path class="st0" d="M76.607,3.654c0-0.384,0.176-0.576,0.528-0.576h11.568c0.208,0,0.356,0.058,0.444,0.175
			c0.088,0.116,0.132,0.263,0.132,0.439v2.12c0,0.145-0.05,0.273-0.15,0.385c-0.1,0.113-0.25,0.168-0.45,0.168h-8.532v3.636h6.576
			c0.16-0.016,0.288,0.018,0.384,0.102c0.096,0.084,0.144,0.226,0.144,0.426v2.172c0,0.144-0.04,0.272-0.12,0.384
			c-0.08,0.112-0.208,0.168-0.384,0.168h-6.6v4.356h8.844c0.224,0,0.372,0.048,0.444,0.145c0.072,0.097,0.108,0.245,0.108,0.446
			v2.192c0,0.337-0.176,0.506-0.528,0.506h-11.88c-0.144,0-0.268-0.04-0.372-0.12c-0.104-0.08-0.156-0.208-0.156-0.384V3.654z"/>
		<path class="st0" d="M91.211,3.642c0-0.376,0.176-0.564,0.528-0.564h7.344c0.808,0,1.564,0.152,2.268,0.456
			c0.704,0.304,1.318,0.716,1.842,1.236s0.936,1.132,1.236,1.836c0.3,0.704,0.45,1.452,0.45,2.244c0,0.552-0.076,1.08-0.228,1.584
			s-0.364,0.972-0.636,1.404s-0.596,0.822-0.972,1.17c-0.376,0.348-0.792,0.642-1.248,0.882l3.12,6.156
			c0.016,0.08,0.044,0.16,0.084,0.24s0.06,0.164,0.06,0.252c0,0.24-0.14,0.36-0.42,0.36h-2.784c-0.288,0-0.48-0.148-0.576-0.444
			l-2.904-5.76c-0.128,0-0.266,0.002-0.414,0.006c-0.148,0.004-0.352,0.006-0.612,0.006c-0.26,0-0.6,0-1.02,0s-0.962,0-1.626,0
			v5.676c0,0.344-0.184,0.516-0.552,0.516h-2.412c-0.16,0-0.288-0.042-0.384-0.126c-0.096-0.084-0.144-0.214-0.144-0.39V3.642z
			 M101.327,8.868c0-0.343-0.064-0.677-0.192-1c-0.128-0.323-0.308-0.613-0.54-0.868c-0.232-0.255-0.508-0.463-0.828-0.623
			s-0.668-0.251-1.044-0.275c-0.28-0.008-0.554-0.014-0.822-0.018s-0.546-0.006-0.834-0.006h-2.364v5.568h3.168
			c0.16,0,0.31,0,0.45,0c0.14,0,0.29-0.008,0.45-0.024c0.376-0.024,0.722-0.112,1.038-0.264c0.316-0.151,0.586-0.353,0.81-0.604
			c0.224-0.251,0.398-0.539,0.522-0.862S101.327,9.227,101.327,8.868z"/>
		<path class="st0" d="M126.431,4.374c0.096,0.056,0.176,0.124,0.24,0.204s0.096,0.176,0.096,0.288c0,0.088-0.023,0.18-0.072,0.276
			l-1.164,1.98c-0.137,0.184-0.279,0.276-0.432,0.276c-0.049,0-0.104-0.01-0.168-0.03s-0.129-0.05-0.191-0.09
			c-0.504-0.36-1.045-0.64-1.621-0.84c-0.576-0.2-1.188-0.3-1.836-0.3c-0.816,0-1.564,0.154-2.244,0.462s-1.268,0.726-1.764,1.254
			s-0.883,1.148-1.158,1.86c-0.275,0.712-0.414,1.476-0.414,2.292c0,0.808,0.139,1.566,0.414,2.274s0.662,1.326,1.158,1.854
			c0.496,0.528,1.084,0.944,1.764,1.248c0.68,0.304,1.428,0.456,2.244,0.456c0.648,0,1.266-0.1,1.854-0.3
			c0.588-0.2,1.131-0.48,1.627-0.84c0.064-0.048,0.129-0.08,0.197-0.096s0.127-0.028,0.174-0.036c0.137,0,0.277,0.088,0.42,0.264
			l1.189,2.004c0.047,0.096,0.072,0.184,0.072,0.264c0,0.112-0.035,0.204-0.104,0.276c-0.068,0.072-0.145,0.14-0.232,0.204
			c-0.754,0.504-1.562,0.894-2.432,1.17c-0.867,0.276-1.781,0.414-2.742,0.414c-0.848,0-1.662-0.108-2.441-0.324
			s-1.51-0.524-2.189-0.924s-1.299-0.878-1.854-1.434s-1.034-1.172-1.434-1.848c-0.4-0.676-0.708-1.404-0.924-2.184
			c-0.216-0.78-0.324-1.594-0.324-2.442c0-0.848,0.108-1.662,0.324-2.442c0.216-0.78,0.524-1.512,0.924-2.196
			c0.4-0.684,0.878-1.306,1.434-1.866s1.175-1.038,1.854-1.434s1.41-0.704,2.189-0.924s1.594-0.33,2.441-0.33
			c0.953,0,1.857,0.134,2.713,0.402C124.875,3.484,125.679,3.87,126.431,4.374z"/>
		<path class="st0" d="M128.111,12.006c0-0.84,0.107-1.652,0.323-2.436c0.217-0.784,0.524-1.516,0.925-2.196
			c0.399-0.68,0.878-1.3,1.434-1.86s1.174-1.038,1.854-1.434c0.68-0.396,1.409-0.704,2.189-0.924c0.78-0.22,1.594-0.33,2.442-0.33
			c0.84,0,1.649,0.11,2.43,0.33c0.78,0.22,1.51,0.528,2.19,0.924c0.68,0.396,1.3,0.874,1.859,1.434
			c0.561,0.56,1.038,1.18,1.435,1.86c0.396,0.68,0.703,1.412,0.924,2.196c0.22,0.784,0.33,1.6,0.33,2.448s-0.11,1.66-0.33,2.436
			c-0.221,0.776-0.528,1.504-0.924,2.184c-0.396,0.68-0.874,1.298-1.435,1.854c-0.56,0.556-1.18,1.032-1.859,1.428
			c-0.681,0.396-1.41,0.702-2.19,0.918s-1.594,0.324-2.442,0.324c-0.848,0-1.661-0.108-2.441-0.324s-1.511-0.524-2.19-0.924
			s-1.298-0.878-1.854-1.434c-0.557-0.556-1.032-1.172-1.429-1.848c-0.396-0.676-0.701-1.404-0.918-2.184
			C128.218,13.668,128.111,12.854,128.111,12.006z M131.579,11.982c0,0.808,0.146,1.564,0.438,2.268s0.692,1.316,1.2,1.836
			s1.108,0.932,1.8,1.236c0.692,0.304,1.442,0.456,2.25,0.456c0.8,0,1.546-0.152,2.238-0.456c0.692-0.304,1.294-0.716,1.806-1.236
			c0.513-0.52,0.914-1.132,1.206-1.836s0.438-1.46,0.438-2.268c0-0.8-0.146-1.552-0.438-2.256s-0.693-1.318-1.206-1.842
			c-0.512-0.524-1.113-0.938-1.806-1.242s-1.438-0.456-2.238-0.456c-0.808,0-1.558,0.152-2.25,0.456
			c-0.691,0.304-1.292,0.718-1.8,1.242c-0.508,0.524-0.908,1.138-1.2,1.842S131.579,11.182,131.579,11.982z"/>
		<path class="st0" d="M163.667,12.006c0,0.832-0.108,1.63-0.324,2.394c-0.216,0.764-0.521,1.476-0.913,2.136
			c-0.392,0.66-0.862,1.258-1.41,1.794c-0.549,0.536-1.159,0.994-1.832,1.374c-0.672,0.38-1.395,0.674-2.168,0.882
			c-0.772,0.208-1.579,0.312-2.419,0.312h-5.765c-0.145,0-0.272-0.032-0.385-0.096c-0.112-0.064-0.168-0.2-0.168-0.408V3.642
			c0-0.376,0.185-0.564,0.553-0.564h5.765c1.272,0,2.459,0.23,3.561,0.69c1.101,0.46,2.06,1.092,2.876,1.896
			c0.816,0.804,1.459,1.748,1.928,2.832C163.432,9.58,163.667,10.75,163.667,12.006z M151.75,6.366V17.61h1.141
			c0.6,0,1.199-0.012,1.8-0.036c0.792-0.024,1.523-0.186,2.196-0.486c0.672-0.3,1.254-0.703,1.745-1.207
			c0.492-0.505,0.876-1.095,1.152-1.772s0.414-1.404,0.414-2.181c0-0.825-0.15-1.58-0.45-2.264s-0.71-1.271-1.229-1.76
			c-0.521-0.489-1.128-0.867-1.824-1.135c-0.696-0.269-1.437-0.403-2.22-0.403H151.75z"/>
		<path class="st0" d="M165.743,3.606c0-0.144,0.044-0.268,0.132-0.372c0.087-0.104,0.219-0.156,0.395-0.156h2.38
			c0.135,0,0.263,0.048,0.382,0.144c0.12,0.096,0.18,0.224,0.18,0.384V20.37c0,0.352-0.188,0.528-0.562,0.528h-2.38
			c-0.352,0-0.526-0.176-0.526-0.528V3.606z"/>
		<path class="st0" d="M171.922,3.618c0-0.152,0.046-0.28,0.138-0.384s0.223-0.156,0.391-0.156h2.76
			c0.111,0,0.218,0.026,0.317,0.078c0.101,0.052,0.19,0.134,0.271,0.246c1.368,1.952,2.724,3.89,4.068,5.814
			c1.344,1.924,2.699,3.862,4.067,5.814V3.534c0.024-0.144,0.084-0.256,0.181-0.336c0.096-0.08,0.212-0.12,0.348-0.12h2.315
			c0.16,0,0.299,0.048,0.414,0.144c0.116,0.096,0.175,0.224,0.175,0.384v16.8c0,0.328-0.188,0.492-0.564,0.492h-2.604
			c-0.177,0-0.341-0.108-0.492-0.324c-1.408-2.04-2.811-4.078-4.206-6.114c-1.396-2.036-2.794-4.078-4.194-6.126V20.37
			c0,0.176-0.042,0.308-0.126,0.396s-0.226,0.132-0.426,0.132h-2.304c-0.185,0-0.318-0.046-0.402-0.138
			c-0.084-0.092-0.126-0.218-0.126-0.378V3.618z"/>
		<path class="st0" d="M201.13,13.446c0-0.16,0.044-0.288,0.132-0.384c0.088-0.096,0.22-0.144,0.396-0.144h1.956
			c0.137,0,0.265,0.048,0.385,0.144c0.119,0.096,0.18,0.224,0.18,0.384v5.508c0,0.096-0.024,0.188-0.072,0.276
			s-0.136,0.172-0.264,0.252c-0.008,0-0.012,0.002-0.012,0.006c0,0.004-0.005,0.006-0.013,0.006c-0.376,0.264-0.779,0.5-1.212,0.708
			c-0.432,0.208-0.884,0.382-1.355,0.522c-0.473,0.14-0.956,0.248-1.452,0.324s-0.992,0.114-1.488,0.114
			c-0.84,0-1.652-0.108-2.436-0.324c-0.784-0.216-1.515-0.524-2.19-0.924s-1.292-0.878-1.848-1.434
			c-0.557-0.556-1.034-1.172-1.435-1.848c-0.399-0.676-0.708-1.404-0.924-2.184c-0.216-0.78-0.324-1.594-0.324-2.442
			c0-0.84,0.108-1.65,0.324-2.43c0.216-0.78,0.524-1.51,0.924-2.19c0.4-0.68,0.878-1.3,1.435-1.86c0.556-0.56,1.174-1.04,1.854-1.44
			s1.41-0.71,2.19-0.93c0.779-0.22,1.594-0.33,2.441-0.33c0.568,0,1.135,0.05,1.698,0.15c0.564,0.1,1.11,0.25,1.638,0.45
			c0.2,0.08,0.438,0.18,0.715,0.3c0.275,0.12,0.537,0.252,0.785,0.396s0.458,0.292,0.631,0.444c0.172,0.152,0.258,0.3,0.258,0.444
			c0,0.064-0.036,0.167-0.108,0.306c-0.072,0.14-0.162,0.298-0.27,0.474c-0.108,0.176-0.23,0.358-0.366,0.546
			s-0.269,0.358-0.396,0.51c-0.128,0.152-0.244,0.278-0.348,0.378c-0.104,0.1-0.185,0.15-0.24,0.15c-0.048,0-0.105-0.01-0.174-0.03
			c-0.068-0.02-0.138-0.058-0.21-0.114c-0.504-0.352-1.072-0.632-1.704-0.84s-1.276-0.312-1.932-0.312
			c-0.856,0-1.641,0.16-2.353,0.48s-1.324,0.752-1.836,1.296s-0.912,1.174-1.2,1.89c-0.287,0.716-0.432,1.47-0.432,2.262
			c0,0.816,0.154,1.582,0.462,2.298c0.308,0.716,0.725,1.34,1.248,1.872c0.524,0.532,1.138,0.952,1.842,1.26
			s1.452,0.462,2.244,0.462c0.296,0,0.588-0.022,0.876-0.066s0.559-0.1,0.811-0.168s0.478-0.144,0.678-0.228
			s0.364-0.166,0.492-0.246V13.446z"/>
		<path class="st0" d="M1.932,24.642c0-0.376,0.18-0.564,0.54-0.564h7.505c0.695,0,1.349,0.13,1.96,0.39
			c0.611,0.26,1.143,0.614,1.595,1.062c0.452,0.448,0.807,0.976,1.067,1.584c0.26,0.608,0.39,1.264,0.39,1.968
			c0,0.648-0.116,1.252-0.348,1.812c-0.232,0.56-0.552,1.052-0.96,1.476c0.328,0.24,0.624,0.516,0.888,0.828
			c0.264,0.312,0.491,0.648,0.682,1.008c0.191,0.36,0.339,0.742,0.444,1.146s0.158,0.818,0.158,1.242
			c0,0.712-0.134,1.388-0.402,2.028c-0.269,0.64-0.632,1.204-1.092,1.692c-0.46,0.489-1.002,0.874-1.626,1.159
			c-0.624,0.283-1.292,0.426-2.004,0.426H2.472c-0.16,0-0.29-0.043-0.39-0.127s-0.15-0.213-0.15-0.39V24.642z M11.52,29.142
			c0-0.304-0.054-0.588-0.163-0.852c-0.108-0.264-0.258-0.492-0.451-0.684s-0.423-0.342-0.691-0.45
			c-0.269-0.108-0.563-0.162-0.884-0.162H5.4v4.344h3.896c0.32,0,0.617-0.056,0.89-0.168c0.272-0.112,0.507-0.266,0.703-0.462
			c0.196-0.196,0.351-0.428,0.463-0.696C11.464,29.744,11.52,29.454,11.52,29.142z M12.3,36.498c0-0.272-0.048-0.538-0.144-0.798
			c-0.096-0.26-0.229-0.494-0.396-0.702c-0.168-0.208-0.369-0.382-0.602-0.522c-0.232-0.14-0.485-0.234-0.757-0.282
			c-0.16-0.024-0.322-0.046-0.486-0.066c-0.165-0.02-0.331-0.03-0.499-0.03H5.4v4.872h4.015c0.168,0,0.333-0.006,0.493-0.018
			c0.16-0.012,0.321-0.034,0.481-0.066c0.272-0.04,0.525-0.132,0.757-0.276s0.435-0.324,0.607-0.54
			c0.172-0.216,0.307-0.458,0.403-0.726C12.252,37.076,12.3,36.794,12.3,36.498z"/>
		<path class="st0" d="M16.632,33.006c0-0.84,0.108-1.652,0.324-2.436c0.216-0.784,0.524-1.516,0.924-2.196s0.878-1.3,1.434-1.86
			s1.174-1.038,1.854-1.434c0.68-0.396,1.41-0.704,2.19-0.924c0.78-0.22,1.594-0.33,2.442-0.33c0.84,0,1.65,0.11,2.43,0.33
			c0.78,0.22,1.51,0.528,2.19,0.924s1.3,0.874,1.86,1.434s1.038,1.18,1.434,1.86s0.704,1.412,0.924,2.196
			c0.22,0.784,0.33,1.6,0.33,2.448s-0.11,1.66-0.33,2.436c-0.22,0.776-0.528,1.504-0.924,2.184c-0.396,0.68-0.874,1.298-1.434,1.854
			c-0.56,0.556-1.18,1.031-1.86,1.428s-1.41,0.702-2.19,0.918s-1.594,0.324-2.442,0.324c-0.848,0-1.662-0.108-2.442-0.324
			c-0.78-0.216-1.51-0.523-2.19-0.924c-0.68-0.4-1.298-0.878-1.854-1.434c-0.556-0.556-1.032-1.172-1.428-1.848
			c-0.396-0.676-0.702-1.404-0.918-2.184C16.74,34.668,16.632,33.854,16.632,33.006z M20.1,32.982c0,0.808,0.146,1.564,0.438,2.268
			s0.692,1.316,1.2,1.836c0.508,0.52,1.108,0.932,1.8,1.236c0.692,0.304,1.442,0.456,2.25,0.456c0.8,0,1.546-0.152,2.238-0.456
			c0.692-0.304,1.294-0.716,1.806-1.236c0.512-0.52,0.914-1.132,1.206-1.836s0.438-1.46,0.438-2.268c0-0.8-0.146-1.552-0.438-2.256
			s-0.694-1.318-1.206-1.842c-0.512-0.524-1.114-0.938-1.806-1.242s-1.438-0.456-2.238-0.456c-0.808,0-1.558,0.152-2.25,0.456
			c-0.692,0.304-1.292,0.718-1.8,1.242c-0.508,0.524-0.908,1.138-1.2,1.842S20.1,32.182,20.1,32.982z"/>
		<path class="st0" d="M36.204,33.006c0-0.84,0.108-1.652,0.324-2.436c0.216-0.784,0.524-1.516,0.924-2.196s0.878-1.3,1.434-1.86
			s1.174-1.038,1.854-1.434c0.68-0.396,1.41-0.704,2.19-0.924c0.78-0.22,1.594-0.33,2.442-0.33c0.84,0,1.65,0.11,2.43,0.33
			c0.78,0.22,1.51,0.528,2.19,0.924s1.3,0.874,1.86,1.434s1.038,1.18,1.434,1.86s0.704,1.412,0.924,2.196
			c0.22,0.784,0.33,1.6,0.33,2.448s-0.11,1.66-0.33,2.436c-0.22,0.776-0.528,1.504-0.924,2.184c-0.396,0.68-0.874,1.298-1.434,1.854
			c-0.56,0.556-1.18,1.031-1.86,1.428s-1.41,0.702-2.19,0.918s-1.594,0.324-2.442,0.324c-0.848,0-1.662-0.108-2.442-0.324
			c-0.78-0.216-1.51-0.523-2.19-0.924c-0.68-0.4-1.298-0.878-1.854-1.434c-0.556-0.556-1.032-1.172-1.428-1.848
			c-0.396-0.676-0.702-1.404-0.918-2.184C36.312,34.668,36.204,33.854,36.204,33.006z M39.672,32.982
			c0,0.808,0.146,1.564,0.438,2.268s0.692,1.316,1.2,1.836c0.508,0.52,1.108,0.932,1.8,1.236c0.692,0.304,1.442,0.456,2.25,0.456
			c0.8,0,1.546-0.152,2.238-0.456c0.692-0.304,1.294-0.716,1.806-1.236c0.512-0.52,0.914-1.132,1.206-1.836s0.438-1.46,0.438-2.268
			c0-0.8-0.146-1.552-0.438-2.256s-0.694-1.318-1.206-1.842c-0.512-0.524-1.114-0.938-1.806-1.242s-1.438-0.456-2.238-0.456
			c-0.808,0-1.558,0.152-2.25,0.456c-0.692,0.304-1.292,0.718-1.8,1.242c-0.508,0.524-0.908,1.138-1.2,1.842
			S39.672,32.182,39.672,32.982z"/>
		<path class="st0" d="M55.344,24.606c0-0.16,0.052-0.288,0.156-0.384c0.104-0.096,0.236-0.144,0.396-0.144H68.52
			c0.144,0,0.274,0.044,0.39,0.132c0.116,0.088,0.182,0.22,0.198,0.396v2.1c0,0.16-0.05,0.3-0.15,0.42s-0.246,0.18-0.438,0.18h-4.56
			v14.04c0,0.145-0.05,0.272-0.15,0.385c-0.1,0.111-0.238,0.168-0.414,0.168h-2.364c-0.144,0-0.274-0.053-0.39-0.156
			c-0.116-0.104-0.174-0.236-0.174-0.396v-14.04h-4.572c-0.16,0-0.292-0.05-0.396-0.15c-0.104-0.1-0.156-0.25-0.156-0.45V24.606z"/>
		<path class="st0" d="M84.12,25.374c0.096,0.056,0.176,0.124,0.24,0.204s0.096,0.176,0.096,0.288c0,0.088-0.024,0.18-0.072,0.276
			l-1.164,1.98c-0.136,0.184-0.28,0.276-0.432,0.276c-0.048,0-0.104-0.01-0.168-0.03c-0.064-0.02-0.128-0.05-0.192-0.09
			c-0.504-0.36-1.044-0.64-1.62-0.84c-0.576-0.2-1.188-0.3-1.836-0.3c-0.816,0-1.564,0.154-2.244,0.462
			c-0.68,0.308-1.268,0.726-1.764,1.254s-0.882,1.148-1.158,1.86c-0.276,0.712-0.414,1.476-0.414,2.292
			c0,0.808,0.138,1.566,0.414,2.274c0.276,0.708,0.662,1.326,1.158,1.854c0.496,0.528,1.084,0.944,1.764,1.248
			c0.68,0.304,1.428,0.456,2.244,0.456c0.648,0,1.266-0.1,1.854-0.3c0.588-0.2,1.13-0.48,1.626-0.84
			c0.064-0.048,0.13-0.08,0.198-0.096s0.126-0.028,0.174-0.036c0.136,0,0.276,0.088,0.42,0.264l1.188,2.004
			c0.048,0.096,0.072,0.184,0.072,0.264c0,0.112-0.034,0.204-0.102,0.276c-0.068,0.071-0.146,0.14-0.234,0.204
			c-0.752,0.504-1.562,0.895-2.43,1.17s-1.782,0.414-2.742,0.414c-0.848,0-1.662-0.108-2.442-0.324
			c-0.78-0.216-1.51-0.523-2.19-0.924c-0.68-0.4-1.298-0.878-1.854-1.434s-1.034-1.172-1.434-1.848
			c-0.4-0.676-0.708-1.404-0.924-2.184c-0.216-0.78-0.324-1.594-0.324-2.442c0-0.848,0.108-1.662,0.324-2.442
			c0.216-0.78,0.524-1.512,0.924-2.196c0.4-0.684,0.877-1.306,1.434-1.866s1.174-1.038,1.854-1.434
			c0.68-0.396,1.41-0.704,2.19-0.924c0.78-0.22,1.594-0.33,2.442-0.33c0.952,0,1.856,0.134,2.712,0.402
			C82.563,24.484,83.367,24.87,84.12,25.374z"/>
		<path class="st0" d="M85.283,41.454c0.04-0.16,0.085-0.308,0.138-0.444c0.052-0.136,0.098-0.26,0.138-0.371l6.468-16.104
			c0.024-0.088,0.09-0.186,0.198-0.294c0.108-0.108,0.254-0.162,0.438-0.162h1.932c0.192,0,0.33,0.048,0.414,0.144
			c0.084,0.096,0.146,0.18,0.186,0.252l0.396,0.936l6.336,15.852c0,0.024,0.006,0.066,0.018,0.127
			c0.012,0.059,0.018,0.109,0.018,0.149c0,0.239-0.176,0.36-0.528,0.36h-2.364c-0.176,0-0.312-0.037-0.408-0.108
			c-0.096-0.072-0.176-0.185-0.24-0.336l-0.216-0.552c-0.152-0.385-0.304-0.769-0.456-1.152c-0.152-0.384-0.3-0.772-0.444-1.164
			h-7.404c-0.208,0.56-0.41,1.086-0.606,1.578c-0.196,0.492-0.362,0.922-0.498,1.29c-0.112,0.296-0.32,0.444-0.624,0.444h-2.4
			c-0.152,0-0.274-0.028-0.366-0.084c-0.092-0.057-0.138-0.141-0.138-0.252C85.271,41.514,85.275,41.479,85.283,41.454z
			 M93.635,28.65c-0.432,1.104-0.862,2.248-1.29,3.432c-0.428,1.184-0.858,2.324-1.29,3.42h5.112L93.635,28.65z"/>
		<path class="st0" d="M104.327,24.606c0.016-0.152,0.076-0.278,0.18-0.378s0.236-0.15,0.396-0.15h3c0.28,0,0.464,0.152,0.552,0.456
			l4.236,11.808c0.712-1.984,1.426-3.952,2.143-5.904c0.715-1.952,1.426-3.92,2.129-5.904c0.113-0.304,0.297-0.456,0.553-0.456
			h3.012c0.16,0,0.289,0.052,0.391,0.156c0.1,0.104,0.154,0.228,0.162,0.372c0.295,2.808,0.596,5.604,0.898,8.388
			c0.305,2.784,0.609,5.576,0.912,8.376v0.036c0,0.328-0.176,0.492-0.527,0.492h-2.328c-0.359,0-0.547-0.176-0.564-0.528
			l-1.223-11.352l-3.996,11.041c-0.041,0.111-0.104,0.215-0.192,0.312c-0.088,0.096-0.18,0.144-0.276,0.144h-2.16
			c-0.104,0-0.2-0.046-0.288-0.138s-0.152-0.198-0.192-0.317c-0.656-1.849-1.316-3.685-1.98-5.509
			c-0.664-1.824-1.332-3.664-2.004-5.52l-1.224,11.34c0,0.353-0.184,0.528-0.552,0.528h-2.328c-0.353,0-0.528-0.176-0.528-0.528
			L104.327,24.606z"/>
		<path class="st0" d="M124.643,24.642c0-0.376,0.18-0.564,0.54-0.564h6.815c0.809,0,1.553,0.158,2.232,0.474
			c0.68,0.316,1.266,0.738,1.758,1.266c0.492,0.528,0.874,1.134,1.146,1.818c0.271,0.684,0.407,1.398,0.407,2.142
			c0,0.728-0.134,1.43-0.402,2.106c-0.269,0.676-0.645,1.276-1.129,1.8c-0.485,0.524-1.063,0.944-1.736,1.26
			c-0.673,0.316-1.41,0.474-2.211,0.474h-3.953v5.964c0,0.345-0.18,0.517-0.538,0.517h-2.403c-0.352,0-0.526-0.172-0.526-0.517
			V24.642z M134.039,29.76c0-0.329-0.063-0.651-0.192-0.968c-0.128-0.316-0.305-0.597-0.529-0.842
			c-0.224-0.244-0.492-0.443-0.806-0.595c-0.312-0.152-0.653-0.229-1.021-0.229h-3.379v5.268h3.379c0.36,0,0.697-0.072,1.01-0.216
			c0.312-0.145,0.583-0.339,0.812-0.583s0.407-0.525,0.535-0.842C133.975,30.436,134.039,30.105,134.039,29.76z"/>
		<path class="st0" d="M14.953,62.898H0.633c0.164-1.414,0.662-2.744,1.494-3.99s2.393-2.717,4.682-4.412
			c1.398-1.039,2.293-1.828,2.684-2.367s0.586-1.051,0.586-1.535c0-0.523-0.193-0.971-0.58-1.342s-0.873-0.557-1.459-0.557
			c-0.609,0-1.107,0.191-1.494,0.574s-0.646,1.059-0.779,2.027L0.984,50.91c0.188-1.344,0.531-2.393,1.031-3.146
			s1.205-1.332,2.115-1.734s2.17-0.604,3.779-0.604c1.68,0,2.986,0.191,3.92,0.574s1.668,0.971,2.203,1.764s0.803,1.682,0.803,2.666
			c0,1.047-0.307,2.047-0.92,3s-1.729,2-3.346,3.141c-0.961,0.664-1.604,1.129-1.928,1.395S7.938,58.578,7.5,59.008h7.453V62.898z"
			/>
		<path class="st0" d="M15.792,54.238c0-3.266,0.588-5.551,1.764-6.855s2.967-1.957,5.373-1.957c1.156,0,2.105,0.143,2.848,0.428
			s1.348,0.656,1.816,1.113s0.838,0.938,1.107,1.441s0.486,1.092,0.65,1.764c0.32,1.281,0.48,2.617,0.48,4.008
			c0,3.117-0.527,5.398-1.582,6.844s-2.871,2.168-5.449,2.168c-1.445,0-2.613-0.23-3.504-0.691s-1.621-1.137-2.191-2.027
			c-0.414-0.633-0.736-1.498-0.967-2.596S15.792,55.566,15.792,54.238z M20.526,54.25c0,2.188,0.193,3.682,0.58,4.482
			s0.947,1.201,1.682,1.201c0.484,0,0.904-0.17,1.26-0.51s0.617-0.877,0.785-1.611s0.252-1.879,0.252-3.434
			c0-2.281-0.193-3.814-0.58-4.6s-0.967-1.178-1.74-1.178c-0.789,0-1.359,0.4-1.711,1.201S20.526,52.086,20.526,54.25z"/>
		<path class="st0" d="M44.569,62.898h-14.32c0.164-1.414,0.662-2.744,1.494-3.99s2.393-2.717,4.682-4.412
			c1.398-1.039,2.293-1.828,2.684-2.367s0.586-1.051,0.586-1.535c0-0.523-0.193-0.971-0.58-1.342s-0.873-0.557-1.459-0.557
			c-0.609,0-1.107,0.191-1.494,0.574s-0.646,1.059-0.779,2.027L30.6,50.91c0.188-1.344,0.531-2.393,1.031-3.146
			s1.205-1.332,2.115-1.734s2.17-0.604,3.779-0.604c1.68,0,2.986,0.191,3.92,0.574s1.668,0.971,2.203,1.764s0.803,1.682,0.803,2.666
			c0,1.047-0.307,2.047-0.92,3s-1.729,2-3.346,3.141c-0.961,0.664-1.604,1.129-1.928,1.395s-0.705,0.613-1.143,1.043h7.453V62.898z"
			/>
		<path class="st0" d="M59.376,62.898h-14.32c0.164-1.414,0.662-2.744,1.494-3.99s2.393-2.717,4.682-4.412
			c1.398-1.039,2.293-1.828,2.684-2.367s0.586-1.051,0.586-1.535c0-0.523-0.193-0.971-0.58-1.342s-0.873-0.557-1.459-0.557
			c-0.609,0-1.107,0.191-1.494,0.574s-0.646,1.059-0.779,2.027l-4.781-0.387c0.188-1.344,0.531-2.393,1.031-3.146
			s1.205-1.332,2.115-1.734s2.17-0.604,3.779-0.604c1.68,0,2.986,0.191,3.92,0.574s1.668,0.971,2.203,1.764s0.803,1.682,0.803,2.666
			c0,1.047-0.307,2.047-0.92,3s-1.729,2-3.346,3.141c-0.961,0.664-1.604,1.129-1.928,1.395s-0.705,0.613-1.143,1.043h7.453V62.898z"
			/>
	</g>
	<g>
		<radialGradient id="SVGID_1_" cx="88.8424" cy="20.0736" r="74.2923" gradientUnits="userSpaceOnUse">
			<stop  offset="0.2221" style="stop-color:#EC5242"/>
			<stop  offset="0.2639" style="stop-color:#EC4F42"/>
			<stop  offset="0.2946" style="stop-color:#EC4642"/>
			<stop  offset="0.3216" style="stop-color:#EC3642"/>
			<stop  offset="0.329" style="stop-color:#EC3042"/>
			<stop  offset="0.384" style="stop-color:#EC3542"/>
			<stop  offset="0.4481" style="stop-color:#EC4343"/>
			<stop  offset="0.5164" style="stop-color:#EC5A45"/>
			<stop  offset="0.5704" style="stop-color:#EC7246"/>
			<stop  offset="0.6983" style="stop-color:#EC6945"/>
			<stop  offset="0.9023" style="stop-color:#EC5242"/>
			<stop  offset="0.9046" style="stop-color:#EC5242"/>
		</radialGradient>
		<path class="st1" d="M12.084,7.83c-0.104,0-0.2-0.026-0.288-0.078c-0.088-0.052-0.188-0.122-0.3-0.21L11.472,7.53
			c-0.152-0.152-0.348-0.32-0.588-0.504c-0.24-0.184-0.508-0.356-0.804-0.516C9.784,6.35,9.466,6.214,9.126,6.102
			C8.786,5.99,8.44,5.934,8.088,5.934c-0.448,0-0.844,0.05-1.188,0.15S6.268,6.32,6.036,6.492C5.804,6.664,5.628,6.866,5.508,7.098
			c-0.12,0.232-0.18,0.48-0.18,0.744c0,0.288,0.09,0.54,0.27,0.756c0.18,0.216,0.424,0.408,0.732,0.576
			c0.308,0.168,0.662,0.322,1.062,0.462c0.4,0.14,0.82,0.278,1.26,0.414c0.504,0.152,1.004,0.316,1.5,0.492s0.97,0.374,1.422,0.594
			c0.452,0.22,0.874,0.464,1.266,0.732s0.73,0.576,1.014,0.924c0.284,0.348,0.508,0.736,0.672,1.164
			c0.164,0.428,0.246,0.91,0.246,1.446c0,0.872-0.176,1.66-0.528,2.364c-0.352,0.704-0.838,1.306-1.458,1.806
			c-0.62,0.5-1.348,0.884-2.184,1.152c-0.836,0.268-1.734,0.402-2.694,0.402c-0.616,0-1.229-0.072-1.836-0.216
			c-0.608-0.144-1.192-0.348-1.752-0.612c-0.56-0.264-1.09-0.582-1.59-0.954c-0.5-0.372-0.946-0.79-1.338-1.254v0.012l-0.024-0.048
			c-0.176-0.2-0.264-0.384-0.264-0.552c0-0.088,0.024-0.172,0.072-0.252c0.048-0.08,0.12-0.168,0.216-0.264l0.396-0.396
			c0.12-0.104,0.248-0.22,0.384-0.348s0.272-0.244,0.408-0.348c0.136-0.104,0.262-0.192,0.378-0.264
			c0.116-0.072,0.21-0.108,0.282-0.108c0.112,0,0.216,0.036,0.312,0.108c0.096,0.072,0.176,0.14,0.24,0.204l0.048,0.048H3.828
			c0.28,0.264,0.594,0.516,0.942,0.756c0.348,0.24,0.706,0.454,1.074,0.642c0.368,0.188,0.733,0.336,1.098,0.444
			c0.364,0.108,0.706,0.162,1.026,0.162c0.44,0,0.852-0.056,1.236-0.168c0.384-0.112,0.716-0.27,0.996-0.474
			c0.28-0.204,0.5-0.45,0.66-0.738s0.24-0.608,0.24-0.96s-0.104-0.654-0.312-0.906s-0.48-0.472-0.816-0.66s-0.714-0.35-1.134-0.486
			c-0.42-0.136-0.842-0.264-1.266-0.384c-0.976-0.296-1.83-0.616-2.562-0.96c-0.732-0.344-1.342-0.73-1.83-1.158
			c-0.488-0.428-0.854-0.908-1.098-1.44C1.838,9.02,1.716,8.422,1.716,7.758c0-0.744,0.15-1.422,0.45-2.034
			c0.3-0.612,0.726-1.136,1.278-1.572c0.552-0.436,1.216-0.776,1.992-1.02C6.212,2.888,7.08,2.766,8.04,2.766
			c0.728,0,1.468,0.114,2.22,0.342s1.448,0.542,2.088,0.942c0.192,0.12,0.388,0.256,0.588,0.408c0.2,0.152,0.384,0.306,0.552,0.462
			c0.168,0.156,0.306,0.308,0.414,0.456s0.162,0.274,0.162,0.378c0,0.096-0.024,0.194-0.072,0.294c-0.048,0.1-0.108,0.19-0.18,0.27
			l-0.36,0.384V6.69c-0.12,0.128-0.244,0.26-0.372,0.396c-0.128,0.136-0.256,0.258-0.384,0.366c-0.128,0.108-0.244,0.198-0.348,0.27
			C12.244,7.794,12.156,7.83,12.084,7.83z"/>
		<radialGradient id="SVGID_2_" cx="88.8424" cy="20.0736" r="74.2923" gradientUnits="userSpaceOnUse">
			<stop  offset="0.2221" style="stop-color:#EC5242"/>
			<stop  offset="0.2639" style="stop-color:#EC4F42"/>
			<stop  offset="0.2946" style="stop-color:#EC4642"/>
			<stop  offset="0.3216" style="stop-color:#EC3642"/>
			<stop  offset="0.329" style="stop-color:#EC3042"/>
			<stop  offset="0.384" style="stop-color:#EC3542"/>
			<stop  offset="0.4481" style="stop-color:#EC4343"/>
			<stop  offset="0.5164" style="stop-color:#EC5A45"/>
			<stop  offset="0.5704" style="stop-color:#EC7246"/>
			<stop  offset="0.6983" style="stop-color:#EC6945"/>
			<stop  offset="0.9023" style="stop-color:#EC5242"/>
			<stop  offset="0.9046" style="stop-color:#EC5242"/>
		</radialGradient>
		<path class="st2" d="M19.932,13.662c0,0.672,0.096,1.276,0.288,1.812s0.462,0.99,0.81,1.362s0.764,0.656,1.248,0.852
			c0.484,0.196,1.022,0.294,1.614,0.294c0.624,0,1.184-0.104,1.68-0.312s0.914-0.502,1.254-0.882c0.34-0.38,0.6-0.836,0.78-1.368
			c0.18-0.532,0.27-1.118,0.27-1.758V3.606c0-0.144,0.052-0.268,0.155-0.372s0.235-0.156,0.395-0.156h2.32
			c0.167,0,0.309,0.052,0.424,0.156s0.173,0.228,0.173,0.372v10.188c0,1.24-0.2,2.322-0.6,3.246c-0.4,0.924-0.939,1.694-1.619,2.31
			s-1.471,1.076-2.374,1.38c-0.903,0.304-1.858,0.456-2.866,0.456s-1.962-0.162-2.866-0.486c-0.903-0.324-1.694-0.798-2.374-1.422
			s-1.219-1.396-1.619-2.316s-0.6-1.976-0.6-3.168V3.606c0-0.128,0.046-0.248,0.138-0.36c0.092-0.112,0.21-0.168,0.354-0.168h2.448
			c0.12,0,0.244,0.052,0.372,0.156s0.192,0.228,0.192,0.372V13.662z"/>
		<radialGradient id="SVGID_3_" cx="88.8424" cy="20.0736" r="74.2923" gradientUnits="userSpaceOnUse">
			<stop  offset="0.2221" style="stop-color:#EC5242"/>
			<stop  offset="0.2639" style="stop-color:#EC4F42"/>
			<stop  offset="0.2946" style="stop-color:#EC4642"/>
			<stop  offset="0.3216" style="stop-color:#EC3642"/>
			<stop  offset="0.329" style="stop-color:#EC3042"/>
			<stop  offset="0.384" style="stop-color:#EC3542"/>
			<stop  offset="0.4481" style="stop-color:#EC4343"/>
			<stop  offset="0.5164" style="stop-color:#EC5A45"/>
			<stop  offset="0.5704" style="stop-color:#EC7246"/>
			<stop  offset="0.6983" style="stop-color:#EC6945"/>
			<stop  offset="0.9023" style="stop-color:#EC5242"/>
			<stop  offset="0.9046" style="stop-color:#EC5242"/>
		</radialGradient>
		<path class="st3" d="M34.728,3.606c0.016-0.152,0.076-0.278,0.18-0.378s0.236-0.15,0.396-0.15h3c0.28,0,0.464,0.152,0.552,0.456
			l4.236,11.808c0.712-1.984,1.426-3.952,2.142-5.904c0.716-1.952,1.426-3.92,2.13-5.904c0.112-0.304,0.296-0.456,0.552-0.456h3.012
			c0.16,0,0.29,0.052,0.39,0.156s0.154,0.228,0.162,0.372c0.296,2.808,0.596,5.604,0.9,8.388c0.304,2.784,0.608,5.576,0.912,8.376
			v0.036c0,0.328-0.176,0.492-0.528,0.492h-2.328c-0.36,0-0.548-0.176-0.564-0.528L48.647,9.018l-3.996,11.04
			c-0.04,0.112-0.104,0.216-0.192,0.312c-0.088,0.096-0.18,0.144-0.276,0.144h-2.16c-0.104,0-0.2-0.046-0.288-0.138
			s-0.152-0.198-0.192-0.318c-0.656-1.848-1.316-3.684-1.98-5.508c-0.664-1.824-1.332-3.664-2.004-5.52l-1.224,11.34
			c0,0.352-0.184,0.528-0.552,0.528h-2.328c-0.353,0-0.528-0.176-0.528-0.528L34.728,3.606z"/>
		<radialGradient id="SVGID_4_" cx="88.8424" cy="20.0736" r="74.2923" gradientUnits="userSpaceOnUse">
			<stop  offset="0.2221" style="stop-color:#EC5242"/>
			<stop  offset="0.2639" style="stop-color:#EC4F42"/>
			<stop  offset="0.2946" style="stop-color:#EC4642"/>
			<stop  offset="0.3216" style="stop-color:#EC3642"/>
			<stop  offset="0.329" style="stop-color:#EC3042"/>
			<stop  offset="0.384" style="stop-color:#EC3542"/>
			<stop  offset="0.4481" style="stop-color:#EC4343"/>
			<stop  offset="0.5164" style="stop-color:#EC5A45"/>
			<stop  offset="0.5704" style="stop-color:#EC7246"/>
			<stop  offset="0.6983" style="stop-color:#EC6945"/>
			<stop  offset="0.9023" style="stop-color:#EC5242"/>
			<stop  offset="0.9046" style="stop-color:#EC5242"/>
		</radialGradient>
		<path class="st4" d="M56.171,3.606c0.016-0.152,0.076-0.278,0.18-0.378s0.236-0.15,0.396-0.15h3c0.28,0,0.464,0.152,0.552,0.456
			l4.236,11.808c0.712-1.984,1.426-3.952,2.142-5.904c0.716-1.952,1.426-3.92,2.13-5.904c0.112-0.304,0.296-0.456,0.552-0.456h3.012
			c0.16,0,0.29,0.052,0.39,0.156s0.154,0.228,0.162,0.372c0.296,2.808,0.596,5.604,0.9,8.388c0.304,2.784,0.608,5.576,0.912,8.376
			v0.036c0,0.328-0.176,0.492-0.528,0.492h-2.328c-0.36,0-0.548-0.176-0.564-0.528L70.091,9.018l-3.996,11.04
			c-0.04,0.112-0.104,0.216-0.192,0.312c-0.088,0.096-0.18,0.144-0.276,0.144h-2.16c-0.104,0-0.2-0.046-0.288-0.138
			s-0.152-0.198-0.192-0.318c-0.656-1.848-1.316-3.684-1.98-5.508c-0.664-1.824-1.332-3.664-2.004-5.52l-1.224,11.34
			c0,0.352-0.184,0.528-0.552,0.528h-2.328c-0.353,0-0.528-0.176-0.528-0.528L56.171,3.606z"/>
		<radialGradient id="SVGID_5_" cx="88.8424" cy="20.0736" r="74.2923" gradientUnits="userSpaceOnUse">
			<stop  offset="0.2221" style="stop-color:#EC5242"/>
			<stop  offset="0.2639" style="stop-color:#EC4F42"/>
			<stop  offset="0.2946" style="stop-color:#EC4642"/>
			<stop  offset="0.3216" style="stop-color:#EC3642"/>
			<stop  offset="0.329" style="stop-color:#EC3042"/>
			<stop  offset="0.384" style="stop-color:#EC3542"/>
			<stop  offset="0.4481" style="stop-color:#EC4343"/>
			<stop  offset="0.5164" style="stop-color:#EC5A45"/>
			<stop  offset="0.5704" style="stop-color:#EC7246"/>
			<stop  offset="0.6983" style="stop-color:#EC6945"/>
			<stop  offset="0.9023" style="stop-color:#EC5242"/>
			<stop  offset="0.9046" style="stop-color:#EC5242"/>
		</radialGradient>
		<path class="st5" d="M76.607,3.654c0-0.384,0.176-0.576,0.528-0.576h11.568c0.208,0,0.356,0.058,0.444,0.175
			c0.088,0.116,0.132,0.263,0.132,0.439v2.12c0,0.145-0.05,0.273-0.15,0.385c-0.1,0.113-0.25,0.168-0.45,0.168h-8.532v3.636h6.576
			c0.16-0.016,0.288,0.018,0.384,0.102c0.096,0.084,0.144,0.226,0.144,0.426v2.172c0,0.144-0.04,0.272-0.12,0.384
			c-0.08,0.112-0.208,0.168-0.384,0.168h-6.6v4.356h8.844c0.224,0,0.372,0.048,0.444,0.145c0.072,0.097,0.108,0.245,0.108,0.446
			v2.192c0,0.337-0.176,0.506-0.528,0.506h-11.88c-0.144,0-0.268-0.04-0.372-0.12c-0.104-0.08-0.156-0.208-0.156-0.384V3.654z"/>
		<radialGradient id="SVGID_6_" cx="88.8424" cy="20.0736" r="74.2923" gradientUnits="userSpaceOnUse">
			<stop  offset="0.2221" style="stop-color:#EC5242"/>
			<stop  offset="0.2639" style="stop-color:#EC4F42"/>
			<stop  offset="0.2946" style="stop-color:#EC4642"/>
			<stop  offset="0.3216" style="stop-color:#EC3642"/>
			<stop  offset="0.329" style="stop-color:#EC3042"/>
			<stop  offset="0.384" style="stop-color:#EC3542"/>
			<stop  offset="0.4481" style="stop-color:#EC4343"/>
			<stop  offset="0.5164" style="stop-color:#EC5A45"/>
			<stop  offset="0.5704" style="stop-color:#EC7246"/>
			<stop  offset="0.6983" style="stop-color:#EC6945"/>
			<stop  offset="0.9023" style="stop-color:#EC5242"/>
			<stop  offset="0.9046" style="stop-color:#EC5242"/>
		</radialGradient>
		<path class="st6" d="M91.211,3.642c0-0.376,0.176-0.564,0.528-0.564h7.344c0.808,0,1.564,0.152,2.268,0.456
			c0.704,0.304,1.318,0.716,1.842,1.236s0.936,1.132,1.236,1.836c0.3,0.704,0.45,1.452,0.45,2.244c0,0.552-0.076,1.08-0.228,1.584
			s-0.364,0.972-0.636,1.404s-0.596,0.822-0.972,1.17c-0.376,0.348-0.792,0.642-1.248,0.882l3.12,6.156
			c0.016,0.08,0.044,0.16,0.084,0.24s0.06,0.164,0.06,0.252c0,0.24-0.14,0.36-0.42,0.36h-2.784c-0.288,0-0.48-0.148-0.576-0.444
			l-2.904-5.76c-0.128,0-0.266,0.002-0.414,0.006c-0.148,0.004-0.352,0.006-0.612,0.006c-0.26,0-0.6,0-1.02,0s-0.962,0-1.626,0
			v5.676c0,0.344-0.184,0.516-0.552,0.516h-2.412c-0.16,0-0.288-0.042-0.384-0.126c-0.096-0.084-0.144-0.214-0.144-0.39V3.642z
			 M101.327,8.868c0-0.343-0.064-0.677-0.192-1c-0.128-0.323-0.308-0.613-0.54-0.868c-0.232-0.255-0.508-0.463-0.828-0.623
			s-0.668-0.251-1.044-0.275c-0.28-0.008-0.554-0.014-0.822-0.018s-0.546-0.006-0.834-0.006h-2.364v5.568h3.168
			c0.16,0,0.31,0,0.45,0c0.14,0,0.29-0.008,0.45-0.024c0.376-0.024,0.722-0.112,1.038-0.264c0.316-0.151,0.586-0.353,0.81-0.604
			c0.224-0.251,0.398-0.539,0.522-0.862S101.327,9.227,101.327,8.868z"/>
		<radialGradient id="SVGID_7_" cx="88.8424" cy="20.0736" r="74.2923" gradientUnits="userSpaceOnUse">
			<stop  offset="0.2221" style="stop-color:#EC5242"/>
			<stop  offset="0.2639" style="stop-color:#EC4F42"/>
			<stop  offset="0.2946" style="stop-color:#EC4642"/>
			<stop  offset="0.3216" style="stop-color:#EC3642"/>
			<stop  offset="0.329" style="stop-color:#EC3042"/>
			<stop  offset="0.384" style="stop-color:#EC3542"/>
			<stop  offset="0.4481" style="stop-color:#EC4343"/>
			<stop  offset="0.5164" style="stop-color:#EC5A45"/>
			<stop  offset="0.5704" style="stop-color:#EC7246"/>
			<stop  offset="0.6983" style="stop-color:#EC6945"/>
			<stop  offset="0.9023" style="stop-color:#EC5242"/>
			<stop  offset="0.9046" style="stop-color:#EC5242"/>
		</radialGradient>
		<path class="st7" d="M126.431,4.374c0.096,0.056,0.176,0.124,0.24,0.204s0.096,0.176,0.096,0.288c0,0.088-0.023,0.18-0.072,0.276
			l-1.164,1.98c-0.137,0.184-0.279,0.276-0.432,0.276c-0.049,0-0.104-0.01-0.168-0.03s-0.129-0.05-0.191-0.09
			c-0.504-0.36-1.045-0.64-1.621-0.84c-0.576-0.2-1.188-0.3-1.836-0.3c-0.816,0-1.564,0.154-2.244,0.462s-1.268,0.726-1.764,1.254
			s-0.883,1.148-1.158,1.86c-0.275,0.712-0.414,1.476-0.414,2.292c0,0.808,0.139,1.566,0.414,2.274s0.662,1.326,1.158,1.854
			c0.496,0.528,1.084,0.944,1.764,1.248c0.68,0.304,1.428,0.456,2.244,0.456c0.648,0,1.266-0.1,1.854-0.3
			c0.588-0.2,1.131-0.48,1.627-0.84c0.064-0.048,0.129-0.08,0.197-0.096s0.127-0.028,0.174-0.036c0.137,0,0.277,0.088,0.42,0.264
			l1.189,2.004c0.047,0.096,0.072,0.184,0.072,0.264c0,0.112-0.035,0.204-0.104,0.276c-0.068,0.072-0.145,0.14-0.232,0.204
			c-0.754,0.504-1.562,0.894-2.432,1.17c-0.867,0.276-1.781,0.414-2.742,0.414c-0.848,0-1.662-0.108-2.441-0.324
			s-1.51-0.524-2.189-0.924s-1.299-0.878-1.854-1.434s-1.034-1.172-1.434-1.848c-0.4-0.676-0.708-1.404-0.924-2.184
			c-0.216-0.78-0.324-1.594-0.324-2.442c0-0.848,0.108-1.662,0.324-2.442c0.216-0.78,0.524-1.512,0.924-2.196
			c0.4-0.684,0.878-1.306,1.434-1.866s1.175-1.038,1.854-1.434s1.41-0.704,2.189-0.924s1.594-0.33,2.441-0.33
			c0.953,0,1.857,0.134,2.713,0.402C124.875,3.484,125.679,3.87,126.431,4.374z"/>
		<radialGradient id="SVGID_8_" cx="88.8424" cy="20.0736" r="74.2923" gradientUnits="userSpaceOnUse">
			<stop  offset="0.2221" style="stop-color:#EC5242"/>
			<stop  offset="0.2639" style="stop-color:#EC4F42"/>
			<stop  offset="0.2946" style="stop-color:#EC4642"/>
			<stop  offset="0.3216" style="stop-color:#EC3642"/>
			<stop  offset="0.329" style="stop-color:#EC3042"/>
			<stop  offset="0.384" style="stop-color:#EC3542"/>
			<stop  offset="0.4481" style="stop-color:#EC4343"/>
			<stop  offset="0.5164" style="stop-color:#EC5A45"/>
			<stop  offset="0.5704" style="stop-color:#EC7246"/>
			<stop  offset="0.6983" style="stop-color:#EC6945"/>
			<stop  offset="0.9023" style="stop-color:#EC5242"/>
			<stop  offset="0.9046" style="stop-color:#EC5242"/>
		</radialGradient>
		<path class="st8" d="M128.111,12.006c0-0.84,0.107-1.652,0.323-2.436c0.217-0.784,0.524-1.516,0.925-2.196
			c0.399-0.68,0.878-1.3,1.434-1.86s1.174-1.038,1.854-1.434c0.68-0.396,1.409-0.704,2.189-0.924c0.78-0.22,1.594-0.33,2.442-0.33
			c0.84,0,1.649,0.11,2.43,0.33c0.78,0.22,1.51,0.528,2.19,0.924c0.68,0.396,1.3,0.874,1.859,1.434
			c0.561,0.56,1.038,1.18,1.435,1.86c0.396,0.68,0.703,1.412,0.924,2.196c0.22,0.784,0.33,1.6,0.33,2.448s-0.11,1.66-0.33,2.436
			c-0.221,0.776-0.528,1.504-0.924,2.184c-0.396,0.68-0.874,1.298-1.435,1.854c-0.56,0.556-1.18,1.032-1.859,1.428
			c-0.681,0.396-1.41,0.702-2.19,0.918s-1.594,0.324-2.442,0.324c-0.848,0-1.661-0.108-2.441-0.324s-1.511-0.524-2.19-0.924
			s-1.298-0.878-1.854-1.434c-0.557-0.556-1.032-1.172-1.429-1.848c-0.396-0.676-0.701-1.404-0.918-2.184
			C128.218,13.668,128.111,12.854,128.111,12.006z M131.579,11.982c0,0.808,0.146,1.564,0.438,2.268s0.692,1.316,1.2,1.836
			s1.108,0.932,1.8,1.236c0.692,0.304,1.442,0.456,2.25,0.456c0.8,0,1.546-0.152,2.238-0.456c0.692-0.304,1.294-0.716,1.806-1.236
			c0.513-0.52,0.914-1.132,1.206-1.836s0.438-1.46,0.438-2.268c0-0.8-0.146-1.552-0.438-2.256s-0.693-1.318-1.206-1.842
			c-0.512-0.524-1.113-0.938-1.806-1.242s-1.438-0.456-2.238-0.456c-0.808,0-1.558,0.152-2.25,0.456
			c-0.691,0.304-1.292,0.718-1.8,1.242c-0.508,0.524-0.908,1.138-1.2,1.842S131.579,11.182,131.579,11.982z"/>
		<radialGradient id="SVGID_9_" cx="88.8424" cy="20.0736" r="74.2923" gradientUnits="userSpaceOnUse">
			<stop  offset="0.2221" style="stop-color:#EC5242"/>
			<stop  offset="0.2639" style="stop-color:#EC4F42"/>
			<stop  offset="0.2946" style="stop-color:#EC4642"/>
			<stop  offset="0.3216" style="stop-color:#EC3642"/>
			<stop  offset="0.329" style="stop-color:#EC3042"/>
			<stop  offset="0.384" style="stop-color:#EC3542"/>
			<stop  offset="0.4481" style="stop-color:#EC4343"/>
			<stop  offset="0.5164" style="stop-color:#EC5A45"/>
			<stop  offset="0.5704" style="stop-color:#EC7246"/>
			<stop  offset="0.6983" style="stop-color:#EC6945"/>
			<stop  offset="0.9023" style="stop-color:#EC5242"/>
			<stop  offset="0.9046" style="stop-color:#EC5242"/>
		</radialGradient>
		<path class="st9" d="M163.667,12.006c0,0.832-0.108,1.63-0.324,2.394c-0.216,0.764-0.521,1.476-0.913,2.136
			c-0.392,0.66-0.862,1.258-1.41,1.794c-0.549,0.536-1.159,0.994-1.832,1.374c-0.672,0.38-1.395,0.674-2.168,0.882
			c-0.772,0.208-1.579,0.312-2.419,0.312h-5.765c-0.145,0-0.272-0.032-0.385-0.096c-0.112-0.064-0.168-0.2-0.168-0.408V3.642
			c0-0.376,0.185-0.564,0.553-0.564h5.765c1.272,0,2.459,0.23,3.561,0.69c1.101,0.46,2.06,1.092,2.876,1.896
			c0.816,0.804,1.459,1.748,1.928,2.832C163.432,9.58,163.667,10.75,163.667,12.006z M151.75,6.366V17.61h1.141
			c0.6,0,1.199-0.012,1.8-0.036c0.792-0.024,1.523-0.186,2.196-0.486c0.672-0.3,1.254-0.703,1.745-1.207
			c0.492-0.505,0.876-1.095,1.152-1.772s0.414-1.404,0.414-2.181c0-0.825-0.15-1.58-0.45-2.264s-0.71-1.271-1.229-1.76
			c-0.521-0.489-1.128-0.867-1.824-1.135c-0.696-0.269-1.437-0.403-2.22-0.403H151.75z"/>
		<radialGradient id="SVGID_10_" cx="88.8424" cy="20.0736" r="74.2923" gradientUnits="userSpaceOnUse">
			<stop  offset="0.2221" style="stop-color:#EC5242"/>
			<stop  offset="0.2639" style="stop-color:#EC4F42"/>
			<stop  offset="0.2946" style="stop-color:#EC4642"/>
			<stop  offset="0.3216" style="stop-color:#EC3642"/>
			<stop  offset="0.329" style="stop-color:#EC3042"/>
			<stop  offset="0.384" style="stop-color:#EC3542"/>
			<stop  offset="0.4481" style="stop-color:#EC4343"/>
			<stop  offset="0.5164" style="stop-color:#EC5A45"/>
			<stop  offset="0.5704" style="stop-color:#EC7246"/>
			<stop  offset="0.6983" style="stop-color:#EC6945"/>
			<stop  offset="0.9023" style="stop-color:#EC5242"/>
			<stop  offset="0.9046" style="stop-color:#EC5242"/>
		</radialGradient>
		<path class="st10" d="M165.743,3.606c0-0.144,0.044-0.268,0.132-0.372c0.087-0.104,0.219-0.156,0.395-0.156h2.38
			c0.135,0,0.263,0.048,0.382,0.144c0.12,0.096,0.18,0.224,0.18,0.384V20.37c0,0.352-0.188,0.528-0.562,0.528h-2.38
			c-0.352,0-0.526-0.176-0.526-0.528V3.606z"/>
		<radialGradient id="SVGID_11_" cx="88.8424" cy="20.0736" r="74.2923" gradientUnits="userSpaceOnUse">
			<stop  offset="0.2221" style="stop-color:#EC5242"/>
			<stop  offset="0.2639" style="stop-color:#EC4F42"/>
			<stop  offset="0.2946" style="stop-color:#EC4642"/>
			<stop  offset="0.3216" style="stop-color:#EC3642"/>
			<stop  offset="0.329" style="stop-color:#EC3042"/>
			<stop  offset="0.384" style="stop-color:#EC3542"/>
			<stop  offset="0.4481" style="stop-color:#EC4343"/>
			<stop  offset="0.5164" style="stop-color:#EC5A45"/>
			<stop  offset="0.5704" style="stop-color:#EC7246"/>
			<stop  offset="0.6983" style="stop-color:#EC6945"/>
			<stop  offset="0.9023" style="stop-color:#EC5242"/>
			<stop  offset="0.9046" style="stop-color:#EC5242"/>
		</radialGradient>
		<path class="st11" d="M171.922,3.618c0-0.152,0.046-0.28,0.138-0.384s0.223-0.156,0.391-0.156h2.76
			c0.111,0,0.218,0.026,0.317,0.078c0.101,0.052,0.19,0.134,0.271,0.246c1.368,1.952,2.724,3.89,4.068,5.814
			c1.344,1.924,2.699,3.862,4.067,5.814V3.534c0.024-0.144,0.084-0.256,0.181-0.336c0.096-0.08,0.212-0.12,0.348-0.12h2.315
			c0.16,0,0.299,0.048,0.414,0.144c0.116,0.096,0.175,0.224,0.175,0.384v16.8c0,0.328-0.188,0.492-0.564,0.492h-2.604
			c-0.177,0-0.341-0.108-0.492-0.324c-1.408-2.04-2.811-4.078-4.206-6.114c-1.396-2.036-2.794-4.078-4.194-6.126V20.37
			c0,0.176-0.042,0.308-0.126,0.396s-0.226,0.132-0.426,0.132h-2.304c-0.185,0-0.318-0.046-0.402-0.138
			c-0.084-0.092-0.126-0.218-0.126-0.378V3.618z"/>
		<radialGradient id="SVGID_12_" cx="88.8424" cy="20.0736" r="74.2923" gradientUnits="userSpaceOnUse">
			<stop  offset="0.2221" style="stop-color:#EC5242"/>
			<stop  offset="0.2639" style="stop-color:#EC4F42"/>
			<stop  offset="0.2946" style="stop-color:#EC4642"/>
			<stop  offset="0.3216" style="stop-color:#EC3642"/>
			<stop  offset="0.329" style="stop-color:#EC3042"/>
			<stop  offset="0.384" style="stop-color:#EC3542"/>
			<stop  offset="0.4481" style="stop-color:#EC4343"/>
			<stop  offset="0.5164" style="stop-color:#EC5A45"/>
			<stop  offset="0.5704" style="stop-color:#EC7246"/>
			<stop  offset="0.6983" style="stop-color:#EC6945"/>
			<stop  offset="0.9023" style="stop-color:#EC5242"/>
			<stop  offset="0.9046" style="stop-color:#EC5242"/>
		</radialGradient>
		<path class="st12" d="M201.13,13.446c0-0.16,0.044-0.288,0.132-0.384c0.088-0.096,0.22-0.144,0.396-0.144h1.956
			c0.137,0,0.265,0.048,0.385,0.144c0.119,0.096,0.18,0.224,0.18,0.384v5.508c0,0.096-0.024,0.188-0.072,0.276
			s-0.136,0.172-0.264,0.252c-0.008,0-0.012,0.002-0.012,0.006c0,0.004-0.005,0.006-0.013,0.006c-0.376,0.264-0.779,0.5-1.212,0.708
			c-0.432,0.208-0.884,0.382-1.355,0.522c-0.473,0.14-0.956,0.248-1.452,0.324s-0.992,0.114-1.488,0.114
			c-0.84,0-1.652-0.108-2.436-0.324c-0.784-0.216-1.515-0.524-2.19-0.924s-1.292-0.878-1.848-1.434
			c-0.557-0.556-1.034-1.172-1.435-1.848c-0.399-0.676-0.708-1.404-0.924-2.184c-0.216-0.78-0.324-1.594-0.324-2.442
			c0-0.84,0.108-1.65,0.324-2.43c0.216-0.78,0.524-1.51,0.924-2.19c0.4-0.68,0.878-1.3,1.435-1.86c0.556-0.56,1.174-1.04,1.854-1.44
			s1.41-0.71,2.19-0.93c0.779-0.22,1.594-0.33,2.441-0.33c0.568,0,1.135,0.05,1.698,0.15c0.564,0.1,1.11,0.25,1.638,0.45
			c0.2,0.08,0.438,0.18,0.715,0.3c0.275,0.12,0.537,0.252,0.785,0.396s0.458,0.292,0.631,0.444c0.172,0.152,0.258,0.3,0.258,0.444
			c0,0.064-0.036,0.167-0.108,0.306c-0.072,0.14-0.162,0.298-0.27,0.474c-0.108,0.176-0.23,0.358-0.366,0.546
			s-0.269,0.358-0.396,0.51c-0.128,0.152-0.244,0.278-0.348,0.378c-0.104,0.1-0.185,0.15-0.24,0.15c-0.048,0-0.105-0.01-0.174-0.03
			c-0.068-0.02-0.138-0.058-0.21-0.114c-0.504-0.352-1.072-0.632-1.704-0.84s-1.276-0.312-1.932-0.312
			c-0.856,0-1.641,0.16-2.353,0.48s-1.324,0.752-1.836,1.296s-0.912,1.174-1.2,1.89c-0.287,0.716-0.432,1.47-0.432,2.262
			c0,0.816,0.154,1.582,0.462,2.298c0.308,0.716,0.725,1.34,1.248,1.872c0.524,0.532,1.138,0.952,1.842,1.26
			s1.452,0.462,2.244,0.462c0.296,0,0.588-0.022,0.876-0.066s0.559-0.1,0.811-0.168s0.478-0.144,0.678-0.228
			s0.364-0.166,0.492-0.246V13.446z"/>
		<radialGradient id="SVGID_13_" cx="88.8424" cy="20.0736" r="74.2923" gradientUnits="userSpaceOnUse">
			<stop  offset="0.2221" style="stop-color:#EC5242"/>
			<stop  offset="0.2639" style="stop-color:#EC4F42"/>
			<stop  offset="0.2946" style="stop-color:#EC4642"/>
			<stop  offset="0.3216" style="stop-color:#EC3642"/>
			<stop  offset="0.329" style="stop-color:#EC3042"/>
			<stop  offset="0.384" style="stop-color:#EC3542"/>
			<stop  offset="0.4481" style="stop-color:#EC4343"/>
			<stop  offset="0.5164" style="stop-color:#EC5A45"/>
			<stop  offset="0.5704" style="stop-color:#EC7246"/>
			<stop  offset="0.6983" style="stop-color:#EC6945"/>
			<stop  offset="0.9023" style="stop-color:#EC5242"/>
			<stop  offset="0.9046" style="stop-color:#EC5242"/>
		</radialGradient>
		<path class="st13" d="M1.932,24.642c0-0.376,0.18-0.564,0.54-0.564h7.505c0.695,0,1.349,0.13,1.96,0.39
			c0.611,0.26,1.143,0.614,1.595,1.062c0.452,0.448,0.807,0.976,1.067,1.584c0.26,0.608,0.39,1.264,0.39,1.968
			c0,0.648-0.116,1.252-0.348,1.812c-0.232,0.56-0.552,1.052-0.96,1.476c0.328,0.24,0.624,0.516,0.888,0.828
			c0.264,0.312,0.491,0.648,0.682,1.008c0.191,0.36,0.339,0.742,0.444,1.146s0.158,0.818,0.158,1.242
			c0,0.712-0.134,1.388-0.402,2.028c-0.269,0.64-0.632,1.204-1.092,1.692c-0.46,0.489-1.002,0.874-1.626,1.159
			c-0.624,0.283-1.292,0.426-2.004,0.426H2.472c-0.16,0-0.29-0.043-0.39-0.127s-0.15-0.213-0.15-0.39V24.642z M11.52,29.142
			c0-0.304-0.054-0.588-0.163-0.852c-0.108-0.264-0.258-0.492-0.451-0.684s-0.423-0.342-0.691-0.45
			c-0.269-0.108-0.563-0.162-0.884-0.162H5.4v4.344h3.896c0.32,0,0.617-0.056,0.89-0.168c0.272-0.112,0.507-0.266,0.703-0.462
			c0.196-0.196,0.351-0.428,0.463-0.696C11.464,29.744,11.52,29.454,11.52,29.142z M12.3,36.498c0-0.272-0.048-0.538-0.144-0.798
			c-0.096-0.26-0.229-0.494-0.396-0.702c-0.168-0.208-0.369-0.382-0.602-0.522c-0.232-0.14-0.485-0.234-0.757-0.282
			c-0.16-0.024-0.322-0.046-0.486-0.066c-0.165-0.02-0.331-0.03-0.499-0.03H5.4v4.872h4.015c0.168,0,0.333-0.006,0.493-0.018
			c0.16-0.012,0.321-0.034,0.481-0.066c0.272-0.04,0.525-0.132,0.757-0.276s0.435-0.324,0.607-0.54
			c0.172-0.216,0.307-0.458,0.403-0.726C12.252,37.076,12.3,36.794,12.3,36.498z"/>
		<radialGradient id="SVGID_14_" cx="88.8424" cy="20.0736" r="74.2923" gradientUnits="userSpaceOnUse">
			<stop  offset="0.2221" style="stop-color:#EC5242"/>
			<stop  offset="0.2639" style="stop-color:#EC4F42"/>
			<stop  offset="0.2946" style="stop-color:#EC4642"/>
			<stop  offset="0.3216" style="stop-color:#EC3642"/>
			<stop  offset="0.329" style="stop-color:#EC3042"/>
			<stop  offset="0.384" style="stop-color:#EC3542"/>
			<stop  offset="0.4481" style="stop-color:#EC4343"/>
			<stop  offset="0.5164" style="stop-color:#EC5A45"/>
			<stop  offset="0.5704" style="stop-color:#EC7246"/>
			<stop  offset="0.6983" style="stop-color:#EC6945"/>
			<stop  offset="0.9023" style="stop-color:#EC5242"/>
			<stop  offset="0.9046" style="stop-color:#EC5242"/>
		</radialGradient>
		<path class="st14" d="M16.632,33.006c0-0.84,0.108-1.652,0.324-2.436c0.216-0.784,0.524-1.516,0.924-2.196s0.878-1.3,1.434-1.86
			s1.174-1.038,1.854-1.434c0.68-0.396,1.41-0.704,2.19-0.924c0.78-0.22,1.594-0.33,2.442-0.33c0.84,0,1.65,0.11,2.43,0.33
			c0.78,0.22,1.51,0.528,2.19,0.924s1.3,0.874,1.86,1.434s1.038,1.18,1.434,1.86s0.704,1.412,0.924,2.196
			c0.22,0.784,0.33,1.6,0.33,2.448s-0.11,1.66-0.33,2.436c-0.22,0.776-0.528,1.504-0.924,2.184c-0.396,0.68-0.874,1.298-1.434,1.854
			c-0.56,0.556-1.18,1.031-1.86,1.428s-1.41,0.702-2.19,0.918s-1.594,0.324-2.442,0.324c-0.848,0-1.662-0.108-2.442-0.324
			c-0.78-0.216-1.51-0.523-2.19-0.924c-0.68-0.4-1.298-0.878-1.854-1.434c-0.556-0.556-1.032-1.172-1.428-1.848
			c-0.396-0.676-0.702-1.404-0.918-2.184C16.74,34.668,16.632,33.854,16.632,33.006z M20.1,32.982c0,0.808,0.146,1.564,0.438,2.268
			s0.692,1.316,1.2,1.836c0.508,0.52,1.108,0.932,1.8,1.236c0.692,0.304,1.442,0.456,2.25,0.456c0.8,0,1.546-0.152,2.238-0.456
			c0.692-0.304,1.294-0.716,1.806-1.236c0.512-0.52,0.914-1.132,1.206-1.836s0.438-1.46,0.438-2.268c0-0.8-0.146-1.552-0.438-2.256
			s-0.694-1.318-1.206-1.842c-0.512-0.524-1.114-0.938-1.806-1.242s-1.438-0.456-2.238-0.456c-0.808,0-1.558,0.152-2.25,0.456
			c-0.692,0.304-1.292,0.718-1.8,1.242c-0.508,0.524-0.908,1.138-1.2,1.842S20.1,32.182,20.1,32.982z"/>
		<radialGradient id="SVGID_15_" cx="88.8424" cy="20.0736" r="74.2923" gradientUnits="userSpaceOnUse">
			<stop  offset="0.2221" style="stop-color:#EC5242"/>
			<stop  offset="0.2639" style="stop-color:#EC4F42"/>
			<stop  offset="0.2946" style="stop-color:#EC4642"/>
			<stop  offset="0.3216" style="stop-color:#EC3642"/>
			<stop  offset="0.329" style="stop-color:#EC3042"/>
			<stop  offset="0.384" style="stop-color:#EC3542"/>
			<stop  offset="0.4481" style="stop-color:#EC4343"/>
			<stop  offset="0.5164" style="stop-color:#EC5A45"/>
			<stop  offset="0.5704" style="stop-color:#EC7246"/>
			<stop  offset="0.6983" style="stop-color:#EC6945"/>
			<stop  offset="0.9023" style="stop-color:#EC5242"/>
			<stop  offset="0.9046" style="stop-color:#EC5242"/>
		</radialGradient>
		<path class="st15" d="M36.204,33.006c0-0.84,0.108-1.652,0.324-2.436c0.216-0.784,0.524-1.516,0.924-2.196s0.878-1.3,1.434-1.86
			s1.174-1.038,1.854-1.434c0.68-0.396,1.41-0.704,2.19-0.924c0.78-0.22,1.594-0.33,2.442-0.33c0.84,0,1.65,0.11,2.43,0.33
			c0.78,0.22,1.51,0.528,2.19,0.924s1.3,0.874,1.86,1.434s1.038,1.18,1.434,1.86s0.704,1.412,0.924,2.196
			c0.22,0.784,0.33,1.6,0.33,2.448s-0.11,1.66-0.33,2.436c-0.22,0.776-0.528,1.504-0.924,2.184c-0.396,0.68-0.874,1.298-1.434,1.854
			c-0.56,0.556-1.18,1.031-1.86,1.428s-1.41,0.702-2.19,0.918s-1.594,0.324-2.442,0.324c-0.848,0-1.662-0.108-2.442-0.324
			c-0.78-0.216-1.51-0.523-2.19-0.924c-0.68-0.4-1.298-0.878-1.854-1.434c-0.556-0.556-1.032-1.172-1.428-1.848
			c-0.396-0.676-0.702-1.404-0.918-2.184C36.312,34.668,36.204,33.854,36.204,33.006z M39.672,32.982
			c0,0.808,0.146,1.564,0.438,2.268s0.692,1.316,1.2,1.836c0.508,0.52,1.108,0.932,1.8,1.236c0.692,0.304,1.442,0.456,2.25,0.456
			c0.8,0,1.546-0.152,2.238-0.456c0.692-0.304,1.294-0.716,1.806-1.236c0.512-0.52,0.914-1.132,1.206-1.836s0.438-1.46,0.438-2.268
			c0-0.8-0.146-1.552-0.438-2.256s-0.694-1.318-1.206-1.842c-0.512-0.524-1.114-0.938-1.806-1.242s-1.438-0.456-2.238-0.456
			c-0.808,0-1.558,0.152-2.25,0.456c-0.692,0.304-1.292,0.718-1.8,1.242c-0.508,0.524-0.908,1.138-1.2,1.842
			S39.672,32.182,39.672,32.982z"/>
		<radialGradient id="SVGID_16_" cx="88.8424" cy="20.0736" r="74.2923" gradientUnits="userSpaceOnUse">
			<stop  offset="0.2221" style="stop-color:#EC5242"/>
			<stop  offset="0.2639" style="stop-color:#EC4F42"/>
			<stop  offset="0.2946" style="stop-color:#EC4642"/>
			<stop  offset="0.3216" style="stop-color:#EC3642"/>
			<stop  offset="0.329" style="stop-color:#EC3042"/>
			<stop  offset="0.384" style="stop-color:#EC3542"/>
			<stop  offset="0.4481" style="stop-color:#EC4343"/>
			<stop  offset="0.5164" style="stop-color:#EC5A45"/>
			<stop  offset="0.5704" style="stop-color:#EC7246"/>
			<stop  offset="0.6983" style="stop-color:#EC6945"/>
			<stop  offset="0.9023" style="stop-color:#EC5242"/>
			<stop  offset="0.9046" style="stop-color:#EC5242"/>
		</radialGradient>
		<path class="st16" d="M55.344,24.606c0-0.16,0.052-0.288,0.156-0.384c0.104-0.096,0.236-0.144,0.396-0.144H68.52
			c0.144,0,0.274,0.044,0.39,0.132c0.116,0.088,0.182,0.22,0.198,0.396v2.1c0,0.16-0.05,0.3-0.15,0.42s-0.246,0.18-0.438,0.18h-4.56
			v14.04c0,0.145-0.05,0.272-0.15,0.385c-0.1,0.111-0.238,0.168-0.414,0.168h-2.364c-0.144,0-0.274-0.053-0.39-0.156
			c-0.116-0.104-0.174-0.236-0.174-0.396v-14.04h-4.572c-0.16,0-0.292-0.05-0.396-0.15c-0.104-0.1-0.156-0.25-0.156-0.45V24.606z"/>
		<radialGradient id="SVGID_17_" cx="88.8424" cy="20.0736" r="74.2923" gradientUnits="userSpaceOnUse">
			<stop  offset="0.2221" style="stop-color:#EC5242"/>
			<stop  offset="0.2639" style="stop-color:#EC4F42"/>
			<stop  offset="0.2946" style="stop-color:#EC4642"/>
			<stop  offset="0.3216" style="stop-color:#EC3642"/>
			<stop  offset="0.329" style="stop-color:#EC3042"/>
			<stop  offset="0.384" style="stop-color:#EC3542"/>
			<stop  offset="0.4481" style="stop-color:#EC4343"/>
			<stop  offset="0.5164" style="stop-color:#EC5A45"/>
			<stop  offset="0.5704" style="stop-color:#EC7246"/>
			<stop  offset="0.6983" style="stop-color:#EC6945"/>
			<stop  offset="0.9023" style="stop-color:#EC5242"/>
			<stop  offset="0.9046" style="stop-color:#EC5242"/>
		</radialGradient>
		<path class="st17" d="M84.12,25.374c0.096,0.056,0.176,0.124,0.24,0.204s0.096,0.176,0.096,0.288c0,0.088-0.024,0.18-0.072,0.276
			l-1.164,1.98c-0.136,0.184-0.28,0.276-0.432,0.276c-0.048,0-0.104-0.01-0.168-0.03c-0.064-0.02-0.128-0.05-0.192-0.09
			c-0.504-0.36-1.044-0.64-1.62-0.84c-0.576-0.2-1.188-0.3-1.836-0.3c-0.816,0-1.564,0.154-2.244,0.462
			c-0.68,0.308-1.268,0.726-1.764,1.254s-0.882,1.148-1.158,1.86c-0.276,0.712-0.414,1.476-0.414,2.292
			c0,0.808,0.138,1.566,0.414,2.274c0.276,0.708,0.662,1.326,1.158,1.854c0.496,0.528,1.084,0.944,1.764,1.248
			c0.68,0.304,1.428,0.456,2.244,0.456c0.648,0,1.266-0.1,1.854-0.3c0.588-0.2,1.13-0.48,1.626-0.84
			c0.064-0.048,0.13-0.08,0.198-0.096s0.126-0.028,0.174-0.036c0.136,0,0.276,0.088,0.42,0.264l1.188,2.004
			c0.048,0.096,0.072,0.184,0.072,0.264c0,0.112-0.034,0.204-0.102,0.276c-0.068,0.071-0.146,0.14-0.234,0.204
			c-0.752,0.504-1.562,0.895-2.43,1.17s-1.782,0.414-2.742,0.414c-0.848,0-1.662-0.108-2.442-0.324
			c-0.78-0.216-1.51-0.523-2.19-0.924c-0.68-0.4-1.298-0.878-1.854-1.434s-1.034-1.172-1.434-1.848
			c-0.4-0.676-0.708-1.404-0.924-2.184c-0.216-0.78-0.324-1.594-0.324-2.442c0-0.848,0.108-1.662,0.324-2.442
			c0.216-0.78,0.524-1.512,0.924-2.196c0.4-0.684,0.877-1.306,1.434-1.866s1.174-1.038,1.854-1.434
			c0.68-0.396,1.41-0.704,2.19-0.924c0.78-0.22,1.594-0.33,2.442-0.33c0.952,0,1.856,0.134,2.712,0.402
			C82.563,24.484,83.367,24.87,84.12,25.374z"/>
		<radialGradient id="SVGID_18_" cx="88.8424" cy="20.0736" r="74.2923" gradientUnits="userSpaceOnUse">
			<stop  offset="0.2221" style="stop-color:#EC5242"/>
			<stop  offset="0.2639" style="stop-color:#EC4F42"/>
			<stop  offset="0.2946" style="stop-color:#EC4642"/>
			<stop  offset="0.3216" style="stop-color:#EC3642"/>
			<stop  offset="0.329" style="stop-color:#EC3042"/>
			<stop  offset="0.384" style="stop-color:#EC3542"/>
			<stop  offset="0.4481" style="stop-color:#EC4343"/>
			<stop  offset="0.5164" style="stop-color:#EC5A45"/>
			<stop  offset="0.5704" style="stop-color:#EC7246"/>
			<stop  offset="0.6983" style="stop-color:#EC6945"/>
			<stop  offset="0.9023" style="stop-color:#EC5242"/>
			<stop  offset="0.9046" style="stop-color:#EC5242"/>
		</radialGradient>
		<path class="st18" d="M85.283,41.454c0.04-0.16,0.085-0.308,0.138-0.444c0.052-0.136,0.098-0.26,0.138-0.371l6.468-16.104
			c0.024-0.088,0.09-0.186,0.198-0.294c0.108-0.108,0.254-0.162,0.438-0.162h1.932c0.192,0,0.33,0.048,0.414,0.144
			c0.084,0.096,0.146,0.18,0.186,0.252l0.396,0.936l6.336,15.852c0,0.024,0.006,0.066,0.018,0.127
			c0.012,0.059,0.018,0.109,0.018,0.149c0,0.239-0.176,0.36-0.528,0.36h-2.364c-0.176,0-0.312-0.037-0.408-0.108
			c-0.096-0.072-0.176-0.185-0.24-0.336l-0.216-0.552c-0.152-0.385-0.304-0.769-0.456-1.152c-0.152-0.384-0.3-0.772-0.444-1.164
			h-7.404c-0.208,0.56-0.41,1.086-0.606,1.578c-0.196,0.492-0.362,0.922-0.498,1.29c-0.112,0.296-0.32,0.444-0.624,0.444h-2.4
			c-0.152,0-0.274-0.028-0.366-0.084c-0.092-0.057-0.138-0.141-0.138-0.252C85.271,41.514,85.275,41.479,85.283,41.454z
			 M93.635,28.65c-0.432,1.104-0.862,2.248-1.29,3.432c-0.428,1.184-0.858,2.324-1.29,3.42h5.112L93.635,28.65z"/>
		<radialGradient id="SVGID_19_" cx="88.8424" cy="20.0736" r="74.2923" gradientUnits="userSpaceOnUse">
			<stop  offset="0.2221" style="stop-color:#EC5242"/>
			<stop  offset="0.2639" style="stop-color:#EC4F42"/>
			<stop  offset="0.2946" style="stop-color:#EC4642"/>
			<stop  offset="0.3216" style="stop-color:#EC3642"/>
			<stop  offset="0.329" style="stop-color:#EC3042"/>
			<stop  offset="0.384" style="stop-color:#EC3542"/>
			<stop  offset="0.4481" style="stop-color:#EC4343"/>
			<stop  offset="0.5164" style="stop-color:#EC5A45"/>
			<stop  offset="0.5704" style="stop-color:#EC7246"/>
			<stop  offset="0.6983" style="stop-color:#EC6945"/>
			<stop  offset="0.9023" style="stop-color:#EC5242"/>
			<stop  offset="0.9046" style="stop-color:#EC5242"/>
		</radialGradient>
		<path class="st19" d="M104.327,24.606c0.016-0.152,0.076-0.278,0.18-0.378s0.236-0.15,0.396-0.15h3
			c0.28,0,0.464,0.152,0.552,0.456l4.236,11.808c0.712-1.984,1.426-3.952,2.143-5.904c0.715-1.952,1.426-3.92,2.129-5.904
			c0.113-0.304,0.297-0.456,0.553-0.456h3.012c0.16,0,0.289,0.052,0.391,0.156c0.1,0.104,0.154,0.228,0.162,0.372
			c0.295,2.808,0.596,5.604,0.898,8.388c0.305,2.784,0.609,5.576,0.912,8.376v0.036c0,0.328-0.176,0.492-0.527,0.492h-2.328
			c-0.359,0-0.547-0.176-0.564-0.528l-1.223-11.352l-3.996,11.041c-0.041,0.111-0.104,0.215-0.192,0.312
			c-0.088,0.096-0.18,0.144-0.276,0.144h-2.16c-0.104,0-0.2-0.046-0.288-0.138s-0.152-0.198-0.192-0.317
			c-0.656-1.849-1.316-3.685-1.98-5.509c-0.664-1.824-1.332-3.664-2.004-5.52l-1.224,11.34c0,0.353-0.184,0.528-0.552,0.528h-2.328
			c-0.353,0-0.528-0.176-0.528-0.528L104.327,24.606z"/>
		<radialGradient id="SVGID_20_" cx="88.8424" cy="20.0736" r="74.2923" gradientUnits="userSpaceOnUse">
			<stop  offset="0.2221" style="stop-color:#EC5242"/>
			<stop  offset="0.2639" style="stop-color:#EC4F42"/>
			<stop  offset="0.2946" style="stop-color:#EC4642"/>
			<stop  offset="0.3216" style="stop-color:#EC3642"/>
			<stop  offset="0.329" style="stop-color:#EC3042"/>
			<stop  offset="0.384" style="stop-color:#EC3542"/>
			<stop  offset="0.4481" style="stop-color:#EC4343"/>
			<stop  offset="0.5164" style="stop-color:#EC5A45"/>
			<stop  offset="0.5704" style="stop-color:#EC7246"/>
			<stop  offset="0.6983" style="stop-color:#EC6945"/>
			<stop  offset="0.9023" style="stop-color:#EC5242"/>
			<stop  offset="0.9046" style="stop-color:#EC5242"/>
		</radialGradient>
		<path class="st20" d="M124.643,24.642c0-0.376,0.18-0.564,0.54-0.564h6.815c0.809,0,1.553,0.158,2.232,0.474
			c0.68,0.316,1.266,0.738,1.758,1.266c0.492,0.528,0.874,1.134,1.146,1.818c0.271,0.684,0.407,1.398,0.407,2.142
			c0,0.728-0.134,1.43-0.402,2.106c-0.269,0.676-0.645,1.276-1.129,1.8c-0.485,0.524-1.063,0.944-1.736,1.26
			c-0.673,0.316-1.41,0.474-2.211,0.474h-3.953v5.964c0,0.345-0.18,0.517-0.538,0.517h-2.403c-0.352,0-0.526-0.172-0.526-0.517
			V24.642z M134.039,29.76c0-0.329-0.063-0.651-0.192-0.968c-0.128-0.316-0.305-0.597-0.529-0.842
			c-0.224-0.244-0.492-0.443-0.806-0.595c-0.312-0.152-0.653-0.229-1.021-0.229h-3.379v5.268h3.379c0.36,0,0.697-0.072,1.01-0.216
			c0.312-0.145,0.583-0.339,0.812-0.583s0.407-0.525,0.535-0.842C133.975,30.436,134.039,30.105,134.039,29.76z"/>
		<radialGradient id="SVGID_21_" cx="88.8424" cy="20.0736" r="74.2923" gradientUnits="userSpaceOnUse">
			<stop  offset="0.2221" style="stop-color:#EC5242"/>
			<stop  offset="0.2639" style="stop-color:#EC4F42"/>
			<stop  offset="0.2946" style="stop-color:#EC4642"/>
			<stop  offset="0.3216" style="stop-color:#EC3642"/>
			<stop  offset="0.329" style="stop-color:#EC3042"/>
			<stop  offset="0.384" style="stop-color:#EC3542"/>
			<stop  offset="0.4481" style="stop-color:#EC4343"/>
			<stop  offset="0.5164" style="stop-color:#EC5A45"/>
			<stop  offset="0.5704" style="stop-color:#EC7246"/>
			<stop  offset="0.6983" style="stop-color:#EC6945"/>
			<stop  offset="0.9023" style="stop-color:#EC5242"/>
			<stop  offset="0.9046" style="stop-color:#EC5242"/>
		</radialGradient>
		<path class="st21" d="M14.953,62.898H0.633c0.164-1.414,0.662-2.744,1.494-3.99s2.393-2.717,4.682-4.412
			c1.398-1.039,2.293-1.828,2.684-2.367s0.586-1.051,0.586-1.535c0-0.523-0.193-0.971-0.58-1.342s-0.873-0.557-1.459-0.557
			c-0.609,0-1.107,0.191-1.494,0.574s-0.646,1.059-0.779,2.027L0.984,50.91c0.188-1.344,0.531-2.393,1.031-3.146
			s1.205-1.332,2.115-1.734s2.17-0.604,3.779-0.604c1.68,0,2.986,0.191,3.92,0.574s1.668,0.971,2.203,1.764s0.803,1.682,0.803,2.666
			c0,1.047-0.307,2.047-0.92,3s-1.729,2-3.346,3.141c-0.961,0.664-1.604,1.129-1.928,1.395S7.938,58.578,7.5,59.008h7.453V62.898z"
			/>
		<radialGradient id="SVGID_22_" cx="88.8424" cy="20.0736" r="74.2923" gradientUnits="userSpaceOnUse">
			<stop  offset="0.2221" style="stop-color:#EC5242"/>
			<stop  offset="0.2639" style="stop-color:#EC4F42"/>
			<stop  offset="0.2946" style="stop-color:#EC4642"/>
			<stop  offset="0.3216" style="stop-color:#EC3642"/>
			<stop  offset="0.329" style="stop-color:#EC3042"/>
			<stop  offset="0.384" style="stop-color:#EC3542"/>
			<stop  offset="0.4481" style="stop-color:#EC4343"/>
			<stop  offset="0.5164" style="stop-color:#EC5A45"/>
			<stop  offset="0.5704" style="stop-color:#EC7246"/>
			<stop  offset="0.6983" style="stop-color:#EC6945"/>
			<stop  offset="0.9023" style="stop-color:#EC5242"/>
			<stop  offset="0.9046" style="stop-color:#EC5242"/>
		</radialGradient>
		<path class="st22" d="M15.792,54.238c0-3.266,0.588-5.551,1.764-6.855s2.967-1.957,5.373-1.957c1.156,0,2.105,0.143,2.848,0.428
			s1.348,0.656,1.816,1.113s0.838,0.938,1.107,1.441s0.486,1.092,0.65,1.764c0.32,1.281,0.48,2.617,0.48,4.008
			c0,3.117-0.527,5.398-1.582,6.844s-2.871,2.168-5.449,2.168c-1.445,0-2.613-0.23-3.504-0.691s-1.621-1.137-2.191-2.027
			c-0.414-0.633-0.736-1.498-0.967-2.596S15.792,55.566,15.792,54.238z M20.526,54.25c0,2.188,0.193,3.682,0.58,4.482
			s0.947,1.201,1.682,1.201c0.484,0,0.904-0.17,1.26-0.51s0.617-0.877,0.785-1.611s0.252-1.879,0.252-3.434
			c0-2.281-0.193-3.814-0.58-4.6s-0.967-1.178-1.74-1.178c-0.789,0-1.359,0.4-1.711,1.201S20.526,52.086,20.526,54.25z"/>
		<radialGradient id="SVGID_23_" cx="88.8424" cy="20.0736" r="74.2923" gradientUnits="userSpaceOnUse">
			<stop  offset="0.2221" style="stop-color:#EC5242"/>
			<stop  offset="0.2639" style="stop-color:#EC4F42"/>
			<stop  offset="0.2946" style="stop-color:#EC4642"/>
			<stop  offset="0.3216" style="stop-color:#EC3642"/>
			<stop  offset="0.329" style="stop-color:#EC3042"/>
			<stop  offset="0.384" style="stop-color:#EC3542"/>
			<stop  offset="0.4481" style="stop-color:#EC4343"/>
			<stop  offset="0.5164" style="stop-color:#EC5A45"/>
			<stop  offset="0.5704" style="stop-color:#EC7246"/>
			<stop  offset="0.6983" style="stop-color:#EC6945"/>
			<stop  offset="0.9023" style="stop-color:#EC5242"/>
			<stop  offset="0.9046" style="stop-color:#EC5242"/>
		</radialGradient>
		<path class="st23" d="M44.569,62.898h-14.32c0.164-1.414,0.662-2.744,1.494-3.99s2.393-2.717,4.682-4.412
			c1.398-1.039,2.293-1.828,2.684-2.367s0.586-1.051,0.586-1.535c0-0.523-0.193-0.971-0.58-1.342s-0.873-0.557-1.459-0.557
			c-0.609,0-1.107,0.191-1.494,0.574s-0.646,1.059-0.779,2.027L30.6,50.91c0.188-1.344,0.531-2.393,1.031-3.146
			s1.205-1.332,2.115-1.734s2.17-0.604,3.779-0.604c1.68,0,2.986,0.191,3.92,0.574s1.668,0.971,2.203,1.764s0.803,1.682,0.803,2.666
			c0,1.047-0.307,2.047-0.92,3s-1.729,2-3.346,3.141c-0.961,0.664-1.604,1.129-1.928,1.395s-0.705,0.613-1.143,1.043h7.453V62.898z"
			/>
		<radialGradient id="SVGID_24_" cx="88.8424" cy="20.0736" r="74.2923" gradientUnits="userSpaceOnUse">
			<stop  offset="0.2221" style="stop-color:#EC5242"/>
			<stop  offset="0.2639" style="stop-color:#EC4F42"/>
			<stop  offset="0.2946" style="stop-color:#EC4642"/>
			<stop  offset="0.3216" style="stop-color:#EC3642"/>
			<stop  offset="0.329" style="stop-color:#EC3042"/>
			<stop  offset="0.384" style="stop-color:#EC3542"/>
			<stop  offset="0.4481" style="stop-color:#EC4343"/>
			<stop  offset="0.5164" style="stop-color:#EC5A45"/>
			<stop  offset="0.5704" style="stop-color:#EC7246"/>
			<stop  offset="0.6983" style="stop-color:#EC6945"/>
			<stop  offset="0.9023" style="stop-color:#EC5242"/>
			<stop  offset="0.9046" style="stop-color:#EC5242"/>
		</radialGradient>
		<path class="st24" d="M59.376,62.898h-14.32c0.164-1.414,0.662-2.744,1.494-3.99s2.393-2.717,4.682-4.412
			c1.398-1.039,2.293-1.828,2.684-2.367s0.586-1.051,0.586-1.535c0-0.523-0.193-0.971-0.58-1.342s-0.873-0.557-1.459-0.557
			c-0.609,0-1.107,0.191-1.494,0.574s-0.646,1.059-0.779,2.027l-4.781-0.387c0.188-1.344,0.531-2.393,1.031-3.146
			s1.205-1.332,2.115-1.734s2.17-0.604,3.779-0.604c1.68,0,2.986,0.191,3.92,0.574s1.668,0.971,2.203,1.764s0.803,1.682,0.803,2.666
			c0,1.047-0.307,2.047-0.92,3s-1.729,2-3.346,3.141c-0.961,0.664-1.604,1.129-1.928,1.395s-0.705,0.613-1.143,1.043h7.453V62.898z"
			/>
	</g>
</g>
<g>
</g>
<g>
</g>
<g>
</g>
<g>
</g>
<g>
</g>
<g>
</g>
<g>
</g>
<g>
</g>
<g>
</g>
<g>
</g>
<g>
</g>
<g>
</g>
<g>
</g>
<g>
</g>
<g>
</g>
</svg>
